<svg width="31" height="31" viewBox="0 0 31 31" fill="none" xmlns="http://www.w3.org/2000/svg">
<path d="M3.81771 0.588867C2.90104 0.588867 2.15104 0.926368 1.46771 1.65762C0.817708 2.38887 0.484375 3.28887 0.484375 4.33887V26.8389C0.484375 27.8889 0.817708 28.7889 1.46771 29.5201C2.15104 30.2514 2.90104 30.5889 3.81771 30.5889H27.151C27.9844 30.5889 28.8177 30.2326 29.4677 29.4826C30.151 28.7139 30.4844 27.8326 30.4844 26.8389V4.33887C30.4844 3.34512 30.151 2.46387 29.4677 1.69512C28.8177 0.945117 27.9844 0.588867 27.151 0.588867H3.81771ZM2.98438 3.40137H27.9844V27.7764H2.98438V3.40137ZM7.15104 9.96387C6.65104 9.96387 6.26771 10.1326 5.95104 10.4889C5.63438 10.8451 5.48438 11.2764 5.48438 11.8389V19.3389C5.48438 19.9014 5.63438 20.3326 5.95104 20.6889C6.26771 21.0451 6.65104 21.2139 7.15104 21.2139H12.151C12.601 21.2139 12.9844 21.0451 13.3344 20.6889C13.6677 20.3326 13.8177 19.9014 13.8177 19.3389V17.4639H11.3177V18.4014H7.98438V12.7764H11.3177V13.7139H13.8177V11.8389C13.8177 11.2764 13.6677 10.8451 13.3344 10.4889C12.9844 10.1326 12.601 9.96387 12.151 9.96387H7.15104ZM18.8177 9.96387C18.3677 9.96387 17.9844 10.1326 17.6344 10.4889C17.301 10.8451 17.151 11.2764 17.151 11.8389V19.3389C17.151 19.9014 17.301 20.3326 17.6344 20.6889C17.9844 21.0451 18.3677 21.2139 18.8177 21.2139H23.8177C24.3177 21.2139 24.701 21.0451 25.0177 20.6889C25.3344 20.3326 25.4844 19.9014 25.4844 19.3389V17.4639H22.9844V18.4014H19.651V12.7764H22.9844V13.7139H25.4844V11.8389C25.4844 11.2764 25.3344 10.8451 25.0177 10.4889C24.701 10.1326 24.3177 9.96387 23.8177 9.96387H18.8177Z" fill="white"/>
</svg>
