<svg width="24" height="27" viewBox="0 0 24 27" fill="none" xmlns="http://www.w3.org/2000/svg">
<path d="M8.25 3.25V0.75H15.75V3.25H8.25ZM10.75 17H13.25V9.5H10.75V17ZM12 27C10.4583 27 9.005 26.7033 7.64 26.11C6.275 25.5167 5.0825 24.7092 4.0625 23.6875C3.04167 22.6667 2.23458 21.4737 1.64125 20.1087C1.04792 18.7437 0.750833 17.2908 0.75 15.75C0.75 14.2083 1.04708 12.755 1.64125 11.39C2.23542 10.025 3.0425 8.8325 4.0625 7.8125C5.08333 6.79167 6.27625 5.98458 7.64125 5.39125C9.00625 4.79792 10.4592 4.50083 12 4.5C13.2917 4.5 14.5313 4.70833 15.7188 5.125C16.9062 5.54167 18.0208 6.14583 19.0625 6.9375L20.8125 5.1875L22.5625 6.9375L20.8125 8.6875C21.6042 9.72917 22.2083 10.8438 22.625 12.0312C23.0417 13.2187 23.25 14.4583 23.25 15.75C23.25 17.2917 22.9529 18.745 22.3588 20.11C21.7646 21.475 20.9575 22.6675 19.9375 23.6875C18.9167 24.7083 17.7238 25.5158 16.3588 26.11C14.9938 26.7042 13.5408 27.0008 12 27ZM12 24.5C14.4167 24.5 16.4792 23.6458 18.1875 21.9375C19.8958 20.2292 20.75 18.1667 20.75 15.75C20.75 13.3333 19.8958 11.2708 18.1875 9.5625C16.4792 7.85417 14.4167 7 12 7C9.58333 7 7.52083 7.85417 5.8125 9.5625C4.10417 11.2708 3.25 13.3333 3.25 15.75C3.25 18.1667 4.10417 20.2292 5.8125 21.9375C7.52083 23.6458 9.58333 24.5 12 24.5Z" fill="white"/>
</svg>
