<svg width="158" height="39" viewBox="0 0 158 39" fill="none" xmlns="http://www.w3.org/2000/svg">
<path d="M91.7534 9.47258H95.6362C95.7279 9.47258 95.8024 9.53631 95.8024 9.61454V27.9899C95.8024 28.0682 95.7279 28.1311 95.6362 28.1311H91.7534C91.6617 28.1311 91.5872 28.0682 91.5872 27.9899V9.61454C91.5872 9.53631 91.6617 9.47258 91.7534 9.47258Z" fill="white"/>
<path d="M84.8102 13.1402C84.8102 13.1015 84.7736 13.0708 84.7283 13.0708H79.713C79.6678 13.0708 79.6311 13.1015 79.6311 13.1402V24.5198C79.6311 24.5585 79.6678 24.5897 79.713 24.5897H84.7283C84.7736 24.5897 84.8102 24.5585 84.8102 24.5198V13.1402ZM85.5058 28.1328L75.5161 28.1302C75.48 28.1302 75.4507 28.1041 75.4507 28.0717V9.58632C75.4507 9.5097 75.4941 9.47163 75.5821 9.47163H85.6084C85.7154 9.47163 85.8077 9.50381 85.8853 9.56796C86.7629 10.3055 87.7109 11.1166 88.7279 12.0005C89.0384 12.2703 88.9724 12.484 88.9724 12.8393C88.976 16.8677 88.976 20.9723 88.9724 25.1536C88.9724 25.3439 88.8837 25.5265 88.7248 25.6622L85.9855 27.9637C85.8535 28.0764 85.6934 28.1328 85.5058 28.1328Z" fill="white"/>
<path d="M131.236 20.6756V28.0513C131.236 28.0937 131.197 28.1281 131.147 28.1281L127.135 28.1328C127.085 28.1328 127.046 28.0984 127.046 28.056V9.54783C127.046 9.50543 127.085 9.47163 127.135 9.47163H131.147C131.197 9.47163 131.236 9.50543 131.236 9.54783V16.982C131.236 17.0241 131.277 17.0586 131.326 17.0586H135.804C135.854 17.0586 135.894 17.0241 135.894 16.982V9.54783C135.894 9.50543 135.935 9.47163 135.983 9.47163H139.98C140.029 9.47163 140.07 9.50543 140.07 9.54783V28.054C140.07 28.0961 140.029 28.1302 139.98 28.1302H135.983C135.935 28.1302 135.894 28.0961 135.894 28.054V20.6756C135.894 20.6333 135.854 20.5994 135.804 20.5994H131.326C131.277 20.5994 131.236 20.6333 131.236 20.6756Z" fill="white"/>
<path d="M148.744 21.2904C148.733 21.3275 148.759 21.366 148.802 21.376C148.809 21.3774 148.816 21.378 148.824 21.378L151.732 21.3961C151.777 21.3961 151.813 21.365 151.813 21.3263C151.813 21.3202 151.813 21.3145 151.811 21.3081L150.396 16.5875C150.386 16.55 150.341 16.527 150.298 16.5359C150.269 16.5423 150.246 16.561 150.238 16.5854L148.744 21.2904ZM152.83 24.9841H147.646C147.606 24.9834 147.569 25.0069 147.559 25.0403L146.608 28.0747C146.597 28.1081 146.562 28.1315 146.521 28.1311H142.522C142.473 28.1301 142.433 28.095 142.434 28.0529C142.435 28.0465 142.436 28.0402 142.438 28.0345L148.283 9.52878C148.294 9.49535 148.33 9.47193 148.37 9.47256H152.409C152.45 9.47256 152.486 9.4966 152.496 9.53102L157.994 28.0366C158.005 28.0779 157.976 28.1191 157.928 28.1291C157.921 28.1305 157.914 28.1311 157.907 28.1311H153.915C153.874 28.1311 153.838 28.1071 153.829 28.0726L152.917 25.0423C152.907 25.0079 152.871 24.9841 152.83 24.9841Z" fill="white"/>
<path d="M104.078 14.4522C108.693 14.4833 113.144 14.4803 117.431 14.4428C118.954 14.4281 120.07 14.5412 120.782 14.7822C122.76 15.4525 124.42 17.174 124.259 19.0917C124.25 19.1909 124.188 19.2405 124.072 19.2405H120.816C120.691 19.2405 120.621 19.1873 120.605 19.0803C120.492 18.3027 119.783 17.6644 118.84 17.6644C111.912 17.6597 105.145 17.6624 98.5398 17.6711C98.387 17.6711 98.3246 17.6066 98.3527 17.4776C99.5965 11.6665 105.497 7.60412 112.462 8.1167C116.128 8.38546 119.25 9.88164 121.83 12.6063C121.972 12.7575 121.929 12.8331 121.701 12.8331H116.959C116.871 12.8331 116.791 12.8117 116.717 12.7679C112.515 10.2797 107.194 10.9066 104.004 14.3218C103.925 14.4067 103.949 14.4505 104.078 14.4522Z" fill="#9747FF"/>
<path d="M118.487 24.0224C113.853 24.0077 109.138 24.0097 104.34 24.0291C103.281 24.0338 102.435 23.9295 101.803 23.7166C99.6484 22.9907 98.2678 21.3498 98.1676 19.3759C98.1627 19.286 98.2134 19.2412 98.3204 19.2412H101.785C101.876 19.2412 101.925 19.2797 101.932 19.358C102.001 20.1132 102.728 20.8122 103.652 20.8122C110.719 20.8169 117.522 20.8163 124.061 20.8102C124.173 20.8102 124.221 20.8581 124.203 20.954C123.168 26.6503 117.082 30.8297 110.409 30.3868C106.428 30.1229 103.194 28.5974 100.707 25.8097C100.61 25.7018 100.642 25.648 100.799 25.648H105.483C105.65 25.648 105.812 25.6908 105.95 25.7716C110.104 28.24 115.389 27.5162 118.566 24.1642C118.653 24.0699 118.627 24.0224 118.487 24.0224Z" fill="#9747FF"/>
<path d="M61.4016 9.47282H65.2844C65.3761 9.47282 65.4506 9.53655 65.4506 9.61479V27.9902C65.4506 28.0684 65.3761 28.1313 65.2844 28.1313H61.4016C61.3099 28.1313 61.2354 28.0684 61.2354 27.9902V9.61479C61.2354 9.53655 61.3099 9.47282 61.4016 9.47282Z" fill="white"/>
<path d="M49.2075 21.2907C49.1959 21.3277 49.2222 21.3662 49.2656 21.3762C49.2723 21.3777 49.2796 21.3782 49.287 21.3782L52.1949 21.3964C52.2402 21.3964 52.2768 21.3652 52.2768 21.3265C52.2768 21.3204 52.2762 21.3147 52.2744 21.3083L50.8595 16.5877C50.8491 16.5502 50.8045 16.5272 50.7611 16.5361C50.7324 16.5425 50.7092 16.5612 50.7012 16.5857L49.2075 21.2907ZM53.2938 24.9843H48.1092C48.0689 24.9837 48.0328 25.0071 48.0224 25.0405L47.0715 28.0749C47.0605 28.1083 47.025 28.1317 46.9841 28.1313H42.9851C42.9362 28.1303 42.8965 28.0953 42.8977 28.0531C42.8983 28.0468 42.8989 28.0405 42.9014 28.0348L48.7467 9.52903C48.7577 9.4956 48.7931 9.47218 48.8335 9.4728H52.8721C52.9137 9.4728 52.9491 9.49685 52.9589 9.53127L58.4571 28.0368C58.4687 28.0782 58.4393 28.1193 58.3911 28.1293C58.3843 28.1307 58.377 28.1313 58.3703 28.1313H54.3787C54.3377 28.1313 54.3017 28.1073 54.2919 28.0729L53.3806 25.0426C53.3709 25.0081 53.3348 24.9843 53.2938 24.9843Z" fill="white"/>
<path fill-rule="evenodd" clip-rule="evenodd" d="M20.8783 20.696V20.7693C20.8783 20.9273 20.8291 21.0788 20.7417 21.1905C20.6542 21.3022 20.5356 21.365 20.4119 21.365H19.7123C19.5886 21.365 19.4699 21.3022 19.3825 21.1905C19.295 21.0788 19.2458 20.9273 19.2458 20.7693V17.4943C19.2458 17.3363 19.295 17.1848 19.3825 17.0731C19.4699 16.9614 19.5886 16.8986 19.7123 16.8986H20.4119C20.5169 16.8986 20.6189 16.9438 20.7013 17.027C20.7837 17.1102 20.8417 17.2265 20.8659 17.357C21.1747 17.2149 21.5354 17.0458 21.6457 16.9814C21.7395 16.9269 21.8477 16.9085 21.9377 16.9016C22.0306 16.8959 22.1237 16.8979 22.2164 16.9079C22.3202 16.9184 22.4235 16.9351 22.5261 16.9579L22.5314 16.9591L22.5331 16.9594L22.538 16.9606L24.0981 17.4074L24.1077 17.4115L24.1102 17.4127L24.1209 17.4169C24.1883 17.4421 24.2562 17.4643 24.3248 17.4833C24.4589 17.5205 24.6279 17.5554 24.7853 17.5554C24.9309 17.5554 25.0815 17.6248 25.1617 17.813C25.2308 17.9745 25.2147 18.152 25.189 18.2747C25.1566 18.4278 25.0899 18.5887 25.0052 18.7254C25.1195 18.6703 25.2447 18.605 25.3791 18.5348L25.4078 18.5199C25.7862 18.3212 26.2349 18.0859 26.6309 18.0025C27.0833 17.9069 27.4124 18.1166 27.5616 18.4886C27.6945 18.8198 27.6638 19.2544 27.4637 19.5162C27.4135 19.582 27.337 19.6511 27.2603 19.7146C27.1782 19.7828 27.0773 19.8593 26.9651 19.9409C26.7074 20.1252 26.4465 20.3022 26.1827 20.4717C25.6295 20.83 25.0498 21.1785 24.8656 21.2646C24.6519 21.3644 24.4225 21.3739 24.2021 21.3593C24.069 21.3488 23.9361 21.3344 23.8036 21.3161C23.7065 21.3033 23.6093 21.2919 23.5121 21.2819C23.0624 21.2384 22.7173 21.0981 22.3997 20.9691L22.361 20.9533C22.0326 20.8205 21.7271 20.7023 21.3225 20.6814C21.2302 20.6766 21.0455 20.6859 20.8783 20.696ZM21.8391 17.5232C21.8542 17.5143 21.8939 17.5015 21.9645 17.4961C22.0308 17.4911 22.1063 17.4943 22.1802 17.5015C22.2687 17.5106 22.3568 17.5248 22.4442 17.5441L23.9764 17.9828L23.9869 17.987C24.0656 18.0166 24.1452 18.0426 24.2254 18.065C24.3618 18.1032 24.5449 18.1431 24.7312 18.1499C24.7146 18.2072 24.6923 18.2616 24.6648 18.3117C24.6275 18.3808 24.5867 18.4341 24.5531 18.4648C24.4561 18.5535 24.3777 18.5905 24.3301 18.6062C24.3139 18.6119 24.2974 18.6159 24.2807 18.6182H24.2756L23.0251 18.5991L22.9808 19.19L22.9932 19.193L23.0289 19.2011L23.1585 19.2302C23.2674 19.2547 23.4169 19.2874 23.5797 19.3214C23.9001 19.3881 24.2863 19.462 24.5055 19.479C24.6571 19.4909 24.8334 19.4313 24.9973 19.3613C25.1683 19.2883 25.3616 19.1874 25.5561 19.0855C25.9565 18.8758 26.3644 18.6622 26.7069 18.5899C27.0031 18.5273 27.1087 18.6655 27.1465 18.7599C27.2009 18.8955 27.1715 19.0459 27.1297 19.1001C27.1197 19.1135 27.0831 19.1513 27.0066 19.2148C26.9352 19.2734 26.8431 19.344 26.7349 19.4224C26.4836 19.6021 26.2292 19.7747 25.9719 19.94C25.4141 20.3013 24.859 20.6329 24.7051 20.7049C24.5806 20.7633 24.4264 20.7773 24.2261 20.7642C24.1081 20.7553 23.9903 20.7425 23.8728 20.7258C23.7644 20.7112 23.6559 20.6985 23.5473 20.6877C23.1527 20.6495 22.8528 20.5277 22.5312 20.3972L22.5021 20.3853C22.169 20.2504 21.8127 20.1101 21.3414 20.086C21.2353 20.0806 21.0464 20.089 20.8783 20.0991V17.984C21.2061 17.8342 21.6914 17.6093 21.8391 17.5232ZM20.4119 17.494H19.7123V20.769H20.4119V17.494Z" fill="white"/>
<path d="M38.4922 19.3096C38.4922 8.69666 29.7955 -3.88763e-07 19.1824 -8.63198e-07C8.56929 -1.33763e-06 6.6764e-05 8.69657 6.63001e-05 19.3096C6.58362e-05 29.9227 8.56928 38.4921 19.1824 38.4921C29.7955 38.4921 38.4922 29.9226 38.4922 19.3096ZM31.6764 19.2215L21.8708 28.9776L19.785 26.9878L22.9384 21.5513L8.60278 21.5513C9.69414 28.1423 15.4175 33.1698 22.3175 33.1698C25.5812 33.1698 28.5821 32.0443 30.9542 30.162C28.0147 33.2958 23.8217 35.2506 19.1824 35.2506C17.0872 35.2573 15.0113 34.8495 13.0742 34.0507C11.1372 33.252 9.37726 32.078 7.8957 30.5964C6.41414 29.1149 5.24022 27.3549 4.4415 25.4178C3.64278 23.4808 3.23503 21.4049 3.24173 19.3096C3.24173 10.4659 10.3389 3.24175 19.1824 3.24175C23.7642 3.24175 27.9115 5.18194 30.8452 8.28081C28.4904 6.44985 25.5315 5.35865 22.3176 5.35865C15.4636 5.35865 9.76878 10.3163 8.62364 16.8421L22.6476 16.8421L19.6864 11.6472L21.8708 9.56135L31.6764 19.2215Z" fill="white"/>
</svg>
