<svg width="101" height="101" viewBox="0 0 101 101" fill="none" xmlns="http://www.w3.org/2000/svg">
<g clip-path="url(#clip0_826_1392)">
<path d="M28.1817 0.0727539C29.0767 0.387801 29.8017 0.892877 30.1217 1.83302C30.6867 3.50327 29.4467 5.18352 27.6117 5.21353C26.1967 5.23853 24.7817 5.21353 23.3667 5.21853C20.9767 5.21853 18.5867 5.18352 16.1967 5.23353C10.2167 5.35355 5.53172 10.0292 5.43172 16.0051C5.37172 19.7607 5.41172 23.5163 5.41672 27.2768C5.41672 28.272 5.07172 29.0921 4.22172 29.6472C2.84172 30.5473 1.04672 29.9422 0.431719 28.392C0.376719 28.257 0.316719 28.127 0.261719 27.9969C0.261719 23.7013 0.261719 19.4057 0.261719 15.11C0.291719 14.985 0.331719 14.86 0.346719 14.735C1.00672 7.64389 6.03672 1.96304 13.0017 0.457812C13.7567 0.292787 14.5317 0.197773 15.2967 0.0727539H28.1817Z" fill="#F0F0F0"/>
<path d="M85.1933 0.0727539C85.9933 0.202773 86.7983 0.302788 87.5883 0.472814C94.4633 1.94804 99.5883 7.80891 100.143 14.82C100.193 15.4701 100.218 16.1202 100.223 16.7703C100.228 20.3358 100.233 23.8963 100.223 27.4619C100.223 28.7271 99.3583 29.7722 98.1583 30.0222C97.0033 30.2623 95.8033 29.6622 95.3283 28.532C95.1583 28.127 95.0883 27.6519 95.0883 27.2068C95.0683 23.6263 95.0783 20.0457 95.0783 16.4702C95.0783 13.0847 93.8833 10.2093 91.3383 7.95394C89.4633 6.28869 87.2433 5.32854 84.7383 5.27353C80.8383 5.18352 76.9283 5.23353 73.0283 5.23353C72.0283 5.23353 71.2083 4.88848 70.6583 4.03835C69.7583 2.65814 70.3633 0.862872 71.9133 0.24778C72.0483 0.192772 72.1783 0.137764 72.3083 0.0777547C76.6033 0.0777547 80.8983 0.0777547 85.1933 0.0777547V0.0727539Z" fill="#F0F0F0"/>
<path d="M0.261719 72.1288C0.576719 71.2336 1.08172 70.5085 2.02672 70.1885C3.69672 69.6234 5.38172 70.8636 5.40672 72.7038C5.43172 74.4591 5.40672 76.2194 5.41172 77.9746C5.41172 80.0249 5.38172 82.0752 5.42672 84.1256C5.55172 90.1065 10.2267 94.7872 16.2117 94.8872C19.9667 94.9472 23.7267 94.9022 27.4867 94.9072C28.7717 94.9072 29.7617 95.5873 30.1267 96.6824C30.6667 98.3227 29.4517 100.033 27.7017 100.048C25.1317 100.068 22.5617 100.063 19.9917 100.048C18.3317 100.038 16.6667 100.083 15.0167 99.9579C8.00172 99.4279 2.14672 94.2871 0.666719 87.411C0.496719 86.6209 0.396719 85.8108 0.266719 85.0157V72.1288H0.261719Z" fill="#F0F0F0"/>
<path d="M78.9002 94.8965C80.7052 94.8965 82.5152 94.9315 84.3202 94.8915C90.2702 94.7615 94.9552 90.0908 95.0602 84.1349C95.1252 80.3794 95.0752 76.6188 95.0802 72.8582C95.0802 71.578 95.7102 70.6179 96.7852 70.2178C98.3552 69.6377 100.19 70.7729 100.205 72.4482C100.235 76.7288 100.36 81.0144 100.11 85.2801C99.7102 92.0611 94.9252 97.717 88.3652 99.4422C86.9802 99.8073 85.5152 99.9973 84.0852 100.027C80.3302 100.107 76.5702 100.062 72.8102 100.052C71.5802 100.052 70.5452 99.1822 70.2952 97.997C70.0502 96.8318 70.6702 95.6016 71.8152 95.1366C72.1952 94.9815 72.6352 94.9215 73.0502 94.9165C75.0002 94.8965 76.9552 94.9065 78.9052 94.9065V94.8965H78.9002Z" fill="#F0F0F0"/>
<path d="M51.0809 90.7516C43.6009 90.7566 37.7809 88.5813 32.8409 84.0806C31.6459 82.9904 31.4859 81.4002 32.4809 80.26C33.4609 79.1298 35.1209 79.0498 36.3109 80.13C38.6559 82.2653 41.2859 83.9356 44.3759 84.7007C51.6159 86.5059 58.2459 85.3808 63.9559 80.305C64.7659 79.5849 65.6259 79.1698 66.7059 79.4599C68.6909 79.99 69.3459 82.4653 67.8459 83.8806C65.1009 86.4759 61.9409 88.3912 58.3309 89.5414C55.7059 90.3765 53.0159 90.7616 51.0809 90.7516Z" fill="#F0F0F0"/>
<path d="M55.5102 57.1859C55.5102 60.1464 55.5202 63.1068 55.5102 66.0673C55.5002 68.4826 54.6752 70.5179 52.6552 71.9632C51.4802 72.8033 50.1452 73.1733 48.7152 73.2083C47.9052 73.2283 47.0802 73.2584 46.2802 73.1533C44.9502 72.9733 44.0002 71.7081 44.1102 70.3979C44.2202 69.0627 45.3202 68.0026 46.6552 67.9676C47.2252 67.9526 47.7952 67.9676 48.3652 67.9626C49.7202 67.9476 50.2452 67.4225 50.2452 66.0523C50.2452 60.0164 50.2452 53.9805 50.2452 47.9446C50.2452 46.9194 50.6352 46.1043 51.5002 45.5592C52.3502 45.0241 53.2502 44.9941 54.1402 45.4942C55.0552 46.0093 55.5102 46.8144 55.5102 47.8595C55.5202 50.965 55.5102 54.0755 55.5102 57.1809V57.1859Z" fill="#F0F0F0"/>
<path d="M27.4414 51.3908C27.4414 50.2506 27.4414 49.1154 27.4414 47.9752C27.4414 47.0051 27.7714 46.185 28.5714 45.6099C30.0214 44.5747 32.0214 45.4349 32.3764 47.2351C32.3914 47.3151 32.4114 47.3952 32.4114 47.4752C32.4114 50.1056 32.4714 52.741 32.3814 55.3714C32.3364 56.7216 31.1664 57.6617 29.9064 57.6467C28.6564 57.6317 27.5664 56.6365 27.4914 55.2913C27.4164 53.9961 27.4764 52.6909 27.4764 51.3908H27.4464H27.4414Z" fill="#F0F0F0"/>
<path d="M68.6766 51.3756C68.6766 50.1254 68.6466 48.8703 68.6866 47.6201C68.7216 46.4649 69.5816 45.4497 70.6366 45.2197C72.1466 44.8947 73.6066 46.0298 73.6466 47.6801C73.7016 50.1654 73.6966 52.6558 73.6466 55.1462C73.6166 56.5964 72.4516 57.6666 71.1066 57.6466C69.7716 57.6216 68.7116 56.5014 68.6766 55.0362C68.6516 53.816 68.6716 52.5958 68.6716 51.3756H68.6816H68.6766Z" fill="#F0F0F0"/>
</g>
<defs>
<clipPath id="clip0_826_1392">
<rect width="100" height="100" fill="white" transform="translate(0.261719 0.0727539)"/>
</clipPath>
</defs>
</svg>
