<svg width="101" height="101" viewBox="0 0 101 101" fill="none" xmlns="http://www.w3.org/2000/svg">
<g clip-path="url(#clip0_826_1358)">
<path d="M28.1817 0.0727539C29.0767 0.387801 29.8017 0.892877 30.1217 1.83302C30.6867 3.50327 29.4467 5.18352 27.6117 5.21353C26.1967 5.23853 24.7817 5.21353 23.3667 5.21853C20.9767 5.21853 18.5867 5.18352 16.1967 5.23353C10.2167 5.35355 5.53172 10.0292 5.43172 16.0051C5.37172 19.7607 5.41172 23.5163 5.41672 27.2768C5.41672 28.272 5.07172 29.0921 4.22172 29.6472C2.84172 30.5473 1.04672 29.9422 0.431719 28.392C0.376719 28.257 0.316719 28.127 0.261719 27.9969C0.261719 23.7013 0.261719 19.4057 0.261719 15.11C0.291719 14.985 0.331719 14.86 0.346719 14.735C1.00672 7.64389 6.03672 1.96304 13.0017 0.457812C13.7567 0.292787 14.5317 0.197773 15.2967 0.0727539H28.1817Z" fill="#F0F0F0"/>
<path d="M85.1933 0.0727539C85.9933 0.202773 86.7983 0.302788 87.5883 0.472814C94.4633 1.94804 99.5883 7.80891 100.143 14.82C100.193 15.4701 100.218 16.1202 100.223 16.7703C100.228 20.3358 100.233 23.8963 100.223 27.4619C100.223 28.7271 99.3583 29.7722 98.1583 30.0222C97.0033 30.2623 95.8033 29.6622 95.3283 28.532C95.1583 28.127 95.0883 27.6519 95.0883 27.2068C95.0683 23.6263 95.0783 20.0457 95.0783 16.4702C95.0783 13.0847 93.8833 10.2093 91.3383 7.95394C89.4633 6.28869 87.2433 5.32854 84.7383 5.27353C80.8383 5.18352 76.9283 5.23353 73.0283 5.23353C72.0283 5.23353 71.2083 4.88848 70.6583 4.03835C69.7583 2.65814 70.3633 0.862872 71.9133 0.24778C72.0483 0.192772 72.1783 0.137764 72.3083 0.0777547C76.6033 0.0777547 80.8983 0.0777547 85.1933 0.0777547V0.0727539Z" fill="#F0F0F0"/>
<path d="M0.261719 72.1288C0.576719 71.2336 1.08172 70.5085 2.02672 70.1885C3.69672 69.6234 5.38172 70.8636 5.40672 72.7038C5.43172 74.4591 5.40672 76.2194 5.41172 77.9746C5.41172 80.0249 5.38172 82.0752 5.42672 84.1256C5.55172 90.1065 10.2267 94.7872 16.2117 94.8872C19.9667 94.9472 23.7267 94.9022 27.4867 94.9072C28.7717 94.9072 29.7617 95.5873 30.1267 96.6824C30.6667 98.3227 29.4517 100.033 27.7017 100.048C25.1317 100.068 22.5617 100.063 19.9917 100.048C18.3317 100.038 16.6667 100.083 15.0167 99.9579C8.00172 99.4279 2.14672 94.2871 0.666719 87.411C0.496719 86.6209 0.396719 85.8108 0.266719 85.0157V72.1288H0.261719Z" fill="#F0F0F0"/>
<path d="M78.9002 94.897C80.7052 94.897 82.5152 94.932 84.3202 94.892C90.2702 94.762 94.9552 90.0913 95.0602 84.1354C95.1252 80.3798 95.0752 76.6193 95.0802 72.8587C95.0802 71.5785 95.7102 70.6184 96.7852 70.2183C98.3552 69.6382 100.19 70.7734 100.205 72.4486C100.235 76.7293 100.36 81.0149 100.11 85.2806C99.7102 92.0616 94.9252 97.7174 88.3652 99.4427C86.9802 99.8078 85.5152 99.9978 84.0852 100.028C80.3302 100.108 76.5702 100.063 72.8102 100.053C71.5802 100.053 70.5452 99.1827 70.2952 97.9975C70.0502 96.8323 70.6702 95.6021 71.8152 95.1371C72.1952 94.982 72.6352 94.922 73.0502 94.917C75.0002 94.897 76.9552 94.907 78.9052 94.907V94.897H78.9002Z" fill="#F0F0F0"/>
<path d="M41.0809 80.7496C33.6009 80.7546 27.7809 78.5793 22.8409 74.0786C21.6459 72.9885 21.4859 71.3982 22.4809 70.2581C23.4609 69.1279 25.1209 69.0479 26.3109 70.128C28.6559 72.2634 31.2859 73.9336 34.3759 74.6987C41.6159 76.504 48.2459 75.3788 53.9559 70.3031C54.7659 69.583 55.6259 69.1679 56.7059 69.4579C58.6909 69.988 59.3459 72.4634 57.8459 73.8786C55.1009 76.474 51.9409 78.3893 48.3309 79.5395C45.7059 80.3746 43.0159 80.7596 41.0809 80.7496Z" fill="#F0F0F0"/>
<path d="M40.5102 47.185C40.5102 50.1454 40.5202 53.1059 40.5102 56.0663C40.5002 58.4817 39.6752 60.517 37.6552 61.9622C36.4802 62.8023 35.1452 63.1724 33.7152 63.2074C32.9052 63.2274 32.0802 63.2574 31.2802 63.1524C29.9502 62.9723 29.0002 61.7071 29.1102 60.3969C29.2202 59.0617 30.3202 58.0016 31.6552 57.9666C32.2252 57.9516 32.7952 57.9666 33.3652 57.9616C34.7202 57.9466 35.2452 57.4215 35.2452 56.0513C35.2452 50.0154 35.2452 43.9795 35.2452 37.9436C35.2452 36.9184 35.6352 36.1033 36.5002 35.5582C37.3502 35.0231 38.2502 34.9931 39.1402 35.4932C40.0552 36.0083 40.5102 36.8134 40.5102 37.8586C40.5202 40.964 40.5102 44.0745 40.5102 47.18V47.185Z" fill="#F0F0F0"/>
<path d="M17.4414 41.3888C17.4414 40.2486 17.4414 39.1135 17.4414 37.9733C17.4414 37.0031 17.7714 36.183 18.5714 35.6079C20.0214 34.5728 22.0214 35.4329 22.3764 37.2332C22.3914 37.3132 22.4114 37.3932 22.4114 37.4732C22.4114 40.1036 22.4714 42.739 22.3814 45.3694C22.3364 46.7196 21.1664 47.6597 19.9064 47.6447C18.6564 47.6297 17.5664 46.6346 17.4914 45.2894C17.4164 43.9942 17.4764 42.689 17.4764 41.3888H17.4464H17.4414Z" fill="#F0F0F0"/>
<path d="M58.6766 41.3742C58.6766 40.124 58.6466 38.8688 58.6866 37.6186C58.7216 36.4634 59.5816 35.4483 60.6366 35.2182C62.1466 34.8932 63.6066 36.0284 63.6466 37.6786C63.7016 40.164 63.6966 42.6544 63.6466 45.1447C63.6166 46.5949 62.4516 47.6651 61.1066 47.6451C59.7716 47.6201 58.7116 46.4999 58.6766 45.0347C58.6516 43.8145 58.6716 42.5943 58.6716 41.3742H58.6816H58.6766Z" fill="#F0F0F0"/>
</g>
<defs>
<clipPath id="clip0_826_1358">
<rect width="100" height="100" fill="white" transform="translate(0.261719 0.0727539)"/>
</clipPath>
</defs>
</svg>
