<svg width="101" height="101" viewBox="0 0 101 101" fill="none" xmlns="http://www.w3.org/2000/svg">
<g clip-path="url(#clip0_826_1369)">
<path d="M28.1817 0.0727539C29.0767 0.387801 29.8017 0.892877 30.1217 1.83302C30.6867 3.50327 29.4467 5.18352 27.6117 5.21353C26.1967 5.23853 24.7817 5.21353 23.3667 5.21853C20.9767 5.21853 18.5867 5.18352 16.1967 5.23353C10.2167 5.35355 5.53172 10.0292 5.43172 16.0051C5.37172 19.7607 5.41172 23.5163 5.41672 27.2768C5.41672 28.272 5.07172 29.0921 4.22172 29.6472C2.84172 30.5473 1.04672 29.9422 0.431719 28.392C0.376719 28.257 0.316719 28.127 0.261719 27.9969C0.261719 23.7013 0.261719 19.4057 0.261719 15.11C0.291719 14.985 0.331719 14.86 0.346719 14.735C1.00672 7.64389 6.03672 1.96304 13.0017 0.457812C13.7567 0.292787 14.5317 0.197773 15.2967 0.0727539H28.1817Z" fill="white"/>
<path d="M85.1933 0.0727539C85.9933 0.202773 86.7983 0.302788 87.5883 0.472814C94.4633 1.94804 99.5883 7.80891 100.143 14.82C100.193 15.4701 100.218 16.1202 100.223 16.7703C100.228 20.3358 100.233 23.8963 100.223 27.4619C100.223 28.7271 99.3583 29.7722 98.1583 30.0222C97.0033 30.2623 95.8033 29.6622 95.3283 28.532C95.1583 28.127 95.0883 27.6519 95.0883 27.2068C95.0683 23.6263 95.0783 20.0457 95.0783 16.4702C95.0783 13.0847 93.8833 10.2093 91.3383 7.95394C89.4633 6.28869 87.2433 5.32854 84.7383 5.27353C80.8383 5.18352 76.9283 5.23353 73.0283 5.23353C72.0283 5.23353 71.2083 4.88848 70.6583 4.03835C69.7583 2.65814 70.3633 0.862872 71.9133 0.24778C72.0483 0.192772 72.1783 0.137764 72.3083 0.0777547C76.6033 0.0777547 80.8983 0.0777547 85.1933 0.0777547V0.0727539Z" fill="white"/>
<path d="M0.261719 72.1288C0.576719 71.2336 1.08172 70.5085 2.02672 70.1885C3.69672 69.6234 5.38172 70.8636 5.40672 72.7038C5.43172 74.4591 5.40672 76.2194 5.41172 77.9746C5.41172 80.0249 5.38172 82.0752 5.42672 84.1256C5.55172 90.1065 10.2267 94.7872 16.2117 94.8872C19.9667 94.9472 23.7267 94.9022 27.4867 94.9072C28.7717 94.9072 29.7617 95.5873 30.1267 96.6824C30.6667 98.3227 29.4517 100.033 27.7017 100.048C25.1317 100.068 22.5617 100.063 19.9917 100.048C18.3317 100.038 16.6667 100.083 15.0167 99.9579C8.00172 99.4279 2.14672 94.2871 0.666719 87.411C0.496719 86.6209 0.396719 85.8108 0.266719 85.0157V72.1288H0.261719Z" fill="white"/>
<path d="M78.9002 94.897C80.7052 94.897 82.5152 94.932 84.3202 94.892C90.2702 94.762 94.9552 90.0913 95.0602 84.1354C95.1252 80.3798 95.0752 76.6193 95.0802 72.8587C95.0802 71.5785 95.7102 70.6184 96.7852 70.2183C98.3552 69.6382 100.19 70.7734 100.205 72.4486C100.235 76.7293 100.36 81.0149 100.11 85.2806C99.7102 92.0616 94.9252 97.7174 88.3652 99.4427C86.9802 99.8078 85.5152 99.9978 84.0852 100.028C80.3302 100.108 76.5702 100.063 72.8102 100.053C71.5802 100.053 70.5452 99.1827 70.2952 97.9975C70.0502 96.8323 70.6702 95.6021 71.8152 95.1371C72.1952 94.982 72.6352 94.922 73.0502 94.917C75.0002 94.897 76.9552 94.907 78.9052 94.907V94.897H78.9002Z" fill="white"/>
<path d="M51.0809 80.7501C43.6009 80.7551 37.7809 78.5798 32.8409 74.0791C31.6459 72.989 31.4859 71.3987 32.4809 70.2585C33.4609 69.1284 35.1209 69.0484 36.3109 70.1285C38.6559 72.2638 41.2859 73.9341 44.3759 74.6992C51.6159 76.5045 58.2459 75.3793 63.9559 70.3036C64.7659 69.5834 65.6259 69.1684 66.7059 69.4584C68.6909 69.9885 69.3459 72.4639 67.8459 73.8791C65.1009 76.4745 61.9409 78.3898 58.3309 79.5399C55.7059 80.3751 53.0159 80.7601 51.0809 80.7501Z" fill="white"/>
<path d="M55.5102 47.185C55.5102 50.1454 55.5202 53.1059 55.5102 56.0663C55.5002 58.4817 54.6752 60.517 52.6552 61.9622C51.4802 62.8023 50.1452 63.1724 48.7152 63.2074C47.9052 63.2274 47.0802 63.2574 46.2802 63.1524C44.9502 62.9723 44.0002 61.7071 44.1102 60.3969C44.2202 59.0617 45.3202 58.0016 46.6552 57.9666C47.2252 57.9516 47.7952 57.9666 48.3652 57.9616C49.7202 57.9466 50.2452 57.4215 50.2452 56.0513C50.2452 50.0154 50.2452 43.9795 50.2452 37.9436C50.2452 36.9184 50.6352 36.1033 51.5002 35.5582C52.3502 35.0231 53.2502 34.9931 54.1402 35.4932C55.0552 36.0083 55.5102 36.8134 55.5102 37.8586C55.5202 40.964 55.5102 44.0745 55.5102 47.18V47.185Z" fill="white"/>
<path d="M27.4414 41.3893C27.4414 40.2491 27.4414 39.1139 27.4414 37.9738C27.4414 37.0036 27.7714 36.1835 28.5714 35.6084C30.0214 34.5733 32.0214 35.4334 32.3764 37.2337C32.3914 37.3137 32.4114 37.3937 32.4114 37.4737C32.4114 40.1041 32.4714 42.7395 32.3814 45.3699C32.3364 46.7201 31.1664 47.6602 29.9064 47.6452C28.6564 47.6302 27.5664 46.6351 27.4914 45.2899C27.4164 43.9947 27.4764 42.6895 27.4764 41.3893H27.4464H27.4414Z" fill="white"/>
<path d="M68.6766 41.3742C68.6766 40.124 68.6466 38.8688 68.6866 37.6186C68.7216 36.4634 69.5816 35.4483 70.6366 35.2182C72.1466 34.8932 73.6066 36.0284 73.6466 37.6786C73.7016 40.164 73.6966 42.6544 73.6466 45.1447C73.6166 46.5949 72.4516 47.6651 71.1066 47.6451C69.7716 47.6201 68.7116 46.4999 68.6766 45.0347C68.6516 43.8145 68.6716 42.5943 68.6716 41.3742H68.6816H68.6766Z" fill="white"/>
</g>
<defs>
<clipPath id="clip0_826_1369">
<rect width="100" height="100" fill="white" transform="translate(0.261719 0.0727539)"/>
</clipPath>
</defs>
</svg>
