<svg width="101" height="101" viewBox="0 0 101 101" fill="none" xmlns="http://www.w3.org/2000/svg">
<g clip-path="url(#clip0_826_1381)">
<path d="M28.1817 0.0727539C29.0767 0.387801 29.8017 0.892877 30.1217 1.83302C30.6867 3.50327 29.4467 5.18352 27.6117 5.21353C26.1967 5.23853 24.7817 5.21353 23.3667 5.21853C20.9767 5.21853 18.5867 5.18352 16.1967 5.23353C10.2167 5.35355 5.53172 10.0292 5.43172 16.0051C5.37172 19.7607 5.41172 23.5163 5.41672 27.2768C5.41672 28.272 5.07172 29.0921 4.22172 29.6472C2.84172 30.5473 1.04672 29.9422 0.431719 28.392C0.376719 28.257 0.316719 28.127 0.261719 27.9969C0.261719 23.7013 0.261719 19.4057 0.261719 15.11C0.291719 14.985 0.331719 14.86 0.346719 14.735C1.00672 7.64389 6.03672 1.96304 13.0017 0.457812C13.7567 0.292787 14.5317 0.197773 15.2967 0.0727539H28.1817Z" fill="#F0F0F0"/>
<path d="M85.1933 0.0727539C85.9933 0.202773 86.7983 0.302788 87.5883 0.472814C94.4633 1.94804 99.5883 7.80891 100.143 14.82C100.193 15.4701 100.218 16.1202 100.223 16.7703C100.228 20.3358 100.233 23.8963 100.223 27.4619C100.223 28.7271 99.3583 29.7722 98.1583 30.0222C97.0033 30.2623 95.8033 29.6622 95.3283 28.532C95.1583 28.127 95.0883 27.6519 95.0883 27.2068C95.0683 23.6263 95.0783 20.0457 95.0783 16.4702C95.0783 13.0847 93.8833 10.2093 91.3383 7.95394C89.4633 6.28869 87.2433 5.32854 84.7383 5.27353C80.8383 5.18352 76.9283 5.23353 73.0283 5.23353C72.0283 5.23353 71.2083 4.88848 70.6583 4.03835C69.7583 2.65814 70.3633 0.862872 71.9133 0.24778C72.0483 0.192772 72.1783 0.137764 72.3083 0.0777547C76.6033 0.0777547 80.8983 0.0777547 85.1933 0.0777547V0.0727539Z" fill="#F0F0F0"/>
<path d="M0.261719 72.1288C0.576719 71.2336 1.08172 70.5085 2.02672 70.1885C3.69672 69.6234 5.38172 70.8636 5.40672 72.7038C5.43172 74.4591 5.40672 76.2194 5.41172 77.9746C5.41172 80.0249 5.38172 82.0752 5.42672 84.1256C5.55172 90.1065 10.2267 94.7872 16.2117 94.8872C19.9667 94.9472 23.7267 94.9022 27.4867 94.9072C28.7717 94.9072 29.7617 95.5873 30.1267 96.6824C30.6667 98.3227 29.4517 100.033 27.7017 100.048C25.1317 100.068 22.5617 100.063 19.9917 100.048C18.3317 100.038 16.6667 100.083 15.0167 99.9579C8.00172 99.4279 2.14672 94.2871 0.666719 87.411C0.496719 86.6209 0.396719 85.8108 0.266719 85.0157V72.1288H0.261719Z" fill="#F0F0F0"/>
<path d="M78.9002 94.897C80.7052 94.897 82.5152 94.932 84.3202 94.892C90.2702 94.762 94.9552 90.0913 95.0602 84.1354C95.1252 80.3798 95.0752 76.6193 95.0802 72.8587C95.0802 71.5785 95.7102 70.6184 96.7852 70.2183C98.3552 69.6382 100.19 70.7734 100.205 72.4486C100.235 76.7293 100.36 81.0149 100.11 85.2806C99.7102 92.0616 94.9252 97.7174 88.3652 99.4427C86.9802 99.8078 85.5152 99.9978 84.0852 100.028C80.3302 100.108 76.5702 100.063 72.8102 100.053C71.5802 100.053 70.5452 99.1827 70.2952 97.9975C70.0502 96.8323 70.6702 95.6021 71.8152 95.1371C72.1952 94.982 72.6352 94.922 73.0502 94.917C75.0002 94.897 76.9552 94.907 78.9052 94.907V94.897H78.9002Z" fill="#F0F0F0"/>
<path d="M51.0809 70.7482C43.6009 70.7532 37.7809 68.5778 32.8409 64.0772C31.6459 62.987 31.4859 61.3968 32.4809 60.2566C33.4609 59.1264 35.1209 59.0464 36.3109 60.1266C38.6559 62.2619 41.2859 63.9321 44.3759 64.6973C51.6159 66.5025 58.2459 65.3774 63.9559 60.3016C64.7659 59.5815 65.6259 59.1664 66.7059 59.4565C68.6909 59.9866 69.3459 62.4619 67.8459 63.8771C65.1009 66.4725 61.9409 68.3878 58.3309 69.538C55.7059 70.3731 53.0159 70.7582 51.0809 70.7482Z" fill="#F0F0F0"/>
<path d="M55.5102 32.1825C55.5102 35.143 55.5202 38.1034 55.5102 41.0639C55.5002 43.4792 54.6752 45.5145 52.6552 46.9597C51.4802 47.7999 50.1452 48.1699 48.7152 48.2049C47.9052 48.2249 47.0802 48.2549 46.2802 48.1499C44.9502 47.9699 44.0002 46.7047 44.1102 45.3945C44.2202 44.0593 45.3202 42.9991 46.6552 42.9641C47.2252 42.9491 47.7952 42.9641 48.3652 42.9591C49.7202 42.9441 50.2452 42.4191 50.2452 41.0489C50.2452 35.013 50.2452 28.977 50.2452 22.9411C50.2452 21.916 50.6352 21.1009 51.5002 20.5558C52.3502 20.0207 53.2502 19.9907 54.1402 20.4908C55.0552 21.0059 55.5102 21.811 55.5102 22.8561C55.5202 25.9616 55.5102 29.0721 55.5102 32.1775V32.1825Z" fill="#F0F0F0"/>
<path d="M27.4414 31.3873C27.4414 30.2472 27.4414 29.112 27.4414 27.9718C27.4414 27.0017 27.7714 26.1816 28.5714 25.6065C30.0214 24.5713 32.0214 25.4314 32.3764 27.2317C32.3914 27.3117 32.4114 27.3917 32.4114 27.4717C32.4114 30.1021 32.4714 32.7375 32.3814 35.3679C32.3364 36.7181 31.1664 37.6583 29.9064 37.6433C28.6564 37.6283 27.5664 36.6331 27.4914 35.2879C27.4164 33.9927 27.4764 32.6875 27.4764 31.3873H27.4464H27.4414Z" fill="#F0F0F0"/>
<path d="M68.6766 31.3722C68.6766 30.122 68.6466 28.8668 68.6866 27.6167C68.7216 26.4615 69.5816 25.4463 70.6366 25.2163C72.1466 24.8912 73.6066 26.0264 73.6466 27.6767C73.7016 30.162 73.6966 32.6524 73.6466 35.1428C73.6166 36.593 72.4516 37.6632 71.1066 37.6432C69.7716 37.6181 68.7116 36.498 68.6766 35.0328C68.6516 33.8126 68.6716 32.5924 68.6716 31.3722H68.6816H68.6766Z" fill="#F0F0F0"/>
</g>
<defs>
<clipPath id="clip0_826_1381">
<rect width="100" height="100" fill="white" transform="translate(0.261719 0.0727539)"/>
</clipPath>
</defs>
</svg>
