<svg width="120" height="52" viewBox="0 0 120 52" fill="none" xmlns="http://www.w3.org/2000/svg">
<path d="M81.2296 40.72C84.2516 40.7404 87.1663 40.7384 89.9734 40.7138C90.9707 40.7042 91.7019 40.7783 92.1677 40.9361C93.4632 41.375 94.5502 42.5023 94.4449 43.7581C94.4389 43.823 94.3981 43.8555 94.3224 43.8555H92.1901C92.1085 43.8555 92.0625 43.8206 92.0521 43.7506C91.978 43.2414 91.5138 42.8234 90.8963 42.8234C86.3595 42.8204 81.9288 42.8221 77.6033 42.8278C77.5033 42.8278 77.4624 42.7855 77.4809 42.7011C78.2953 38.8959 82.1593 36.2358 86.7201 36.5714C89.1201 36.7474 91.1648 37.7271 92.8545 39.5113C92.9473 39.6103 92.9193 39.6598 92.7696 39.6598H89.6648C89.6072 39.6598 89.5544 39.6458 89.5059 39.6171C86.7545 37.9878 83.2703 38.3983 81.1812 40.6346C81.1296 40.6902 81.1456 40.7189 81.2296 40.72Z" fill="white"/>
<path d="M73.1596 37.4593H75.7022C75.7622 37.4593 75.811 37.5011 75.811 37.5523V49.5848C75.811 49.636 75.7622 49.6772 75.7022 49.6772H73.1596C73.0996 49.6772 73.0508 49.636 73.0508 49.5848V37.5523C73.0508 37.5011 73.0996 37.4593 73.1596 37.4593Z" fill="white"/>
<path d="M27.5876 47.3087V45.5687C27.5876 45.5411 27.6138 45.5188 27.6462 45.5188H30.2563C30.2887 45.5188 30.315 45.5411 30.315 45.5687V47.8815C30.3148 47.8945 30.3087 47.9075 30.2976 47.9167L28.2362 49.6626C28.2253 49.672 28.2104 49.6772 28.1948 49.6772H23.5597C23.5442 49.6772 23.5292 49.672 23.5183 49.6626L21.4586 47.9211C21.4477 47.9119 21.4414 47.8989 21.4414 47.886L21.4431 39.2891C21.4431 39.2758 21.4494 39.2628 21.4603 39.2536L23.5305 37.474C23.5414 37.4644 23.5563 37.4593 23.5717 37.4593H28.1948C28.2104 37.4593 28.2253 37.4644 28.2362 37.474L30.2976 39.2523C30.3087 39.2615 30.3148 39.2742 30.315 39.2874V41.5679C30.315 41.5955 30.2887 41.6176 30.2563 41.6176H27.6445C27.6121 41.6176 27.5859 41.5955 27.5859 41.5679L27.5893 39.8646C27.5893 39.8369 27.5632 39.8145 27.5307 39.8145H24.2497C24.2174 39.8145 24.1911 39.8369 24.1911 39.8646V47.3087C24.1911 47.3365 24.2174 47.3589 24.2497 47.3589H27.5289C27.5613 47.3589 27.5876 47.3365 27.5876 47.3087Z" fill="white"/>
<path d="M38.2027 39.8734C38.2027 39.8417 38.1725 39.8161 38.1353 39.8161H34.8716C34.8346 39.8161 34.8044 39.8417 34.8044 39.8734V47.3013C34.8044 47.333 34.8346 47.3589 34.8716 47.3589H38.1353C38.1725 47.3589 38.2027 47.333 38.2027 47.3013V39.8734ZM40.8247 48.0021L38.8995 49.614C38.8477 49.656 38.7869 49.6772 38.7167 49.6772H34.2472C34.192 49.6772 34.1444 49.6604 34.104 49.6273C33.5118 49.1267 32.8913 48.6063 32.2427 48.0653C32.1277 47.9703 32.0703 47.8593 32.0703 47.7326C32.0714 44.8721 32.0714 42.0701 32.0703 39.3274C32.0703 39.2782 32.0903 39.2366 32.1306 39.202L34.1023 37.5123C34.1426 37.477 34.192 37.4593 34.2507 37.4593H38.7288C38.8011 37.4593 38.8627 37.4808 38.9134 37.5239L40.8558 39.1949C40.9029 39.2359 40.9265 39.2854 40.9265 39.3434V47.793C40.9265 47.8753 40.8926 47.945 40.8247 48.0021Z" fill="white"/>
<path d="M48.8165 39.8602C48.8165 39.8355 48.7934 39.816 48.7648 39.816H45.4838C45.4552 39.816 45.4321 39.8355 45.4321 39.8602V47.3146C45.4321 47.3391 45.4552 47.3589 45.4838 47.3589H48.7648C48.7934 47.3589 48.8165 47.3391 48.8165 47.3146V39.8602ZM51.5506 39.2932L51.5523 47.8859C51.5524 47.903 51.5443 47.9193 51.53 47.9313L49.4737 49.6595C49.4593 49.6713 49.4401 49.6779 49.4203 49.6772H42.7618C42.7207 49.6772 42.6875 49.6488 42.6875 49.614V37.5224C42.6875 37.4875 42.7207 37.4593 42.7618 37.4593H49.4185C49.4387 37.4593 49.4579 37.4661 49.472 37.4783L51.53 39.2479C51.5437 39.2601 51.5512 39.2765 51.5506 39.2932Z" fill="white"/>
<path d="M56.0561 44.799L56.0578 47.3057C56.0578 47.335 56.0857 47.3589 56.1199 47.3589H60.5239C60.5582 47.3589 60.586 47.3825 60.586 47.4119L60.5791 49.6212C60.5791 49.6506 60.5513 49.6744 60.5171 49.6744L53.3668 49.6772C53.3325 49.6772 53.3047 49.6536 53.3047 49.6243V37.5123C53.3047 37.4828 53.3325 37.4593 53.3668 37.4593H60.5222C60.5565 37.4593 60.5843 37.4828 60.5843 37.5123V39.7615C60.5843 39.7909 60.5565 39.8145 60.5222 39.8145H56.1182C56.084 39.8145 56.0561 39.8384 56.0561 39.8673V42.3744C56.0561 42.4038 56.084 42.4274 56.1182 42.4274H59.6097C59.644 42.4274 59.6718 42.4513 59.6718 42.4803V44.693C59.6718 44.7221 59.644 44.746 59.6097 44.746H56.1182C56.084 44.746 56.0561 44.7696 56.0561 44.799Z" fill="white"/>
<path d="M68.6132 39.8608C68.6132 39.8354 68.5892 39.8153 68.5595 39.8153H65.2754C65.2458 39.8153 65.2218 39.8354 65.2218 39.8608V47.3124C65.2218 47.3377 65.2458 47.3581 65.2754 47.3581H68.5595C68.5892 47.3581 68.6132 47.3377 68.6132 47.3124V39.8608ZM69.0686 49.6782L62.5272 49.6765C62.5036 49.6765 62.4844 49.6594 62.4844 49.6382V37.5337C62.4844 37.4835 62.5128 37.4586 62.5704 37.4586H69.1358C69.2059 37.4586 69.2663 37.4796 69.3171 37.5216C69.8918 38.0046 70.5126 38.5357 71.1785 39.1145C71.3818 39.2912 71.3386 39.4311 71.3386 39.6638C71.341 42.3016 71.341 44.9894 71.3386 47.7274C71.3386 47.852 71.2806 47.9715 71.1765 48.0604L69.3828 49.5675C69.2963 49.6413 69.1915 49.6782 69.0686 49.6782Z" fill="white"/>
<path d="M99.0138 44.7951V49.6249C99.0138 49.6526 98.9877 49.6752 98.9553 49.6752L96.328 49.6782C96.2955 49.6782 96.2695 49.6557 96.2695 49.6279V37.5085C96.2695 37.4807 96.2955 37.4586 96.328 37.4586H98.9553C98.9877 37.4586 99.0138 37.4807 99.0138 37.5085V42.3765C99.0138 42.4041 99.0402 42.4266 99.0726 42.4266H102.005C102.037 42.4266 102.064 42.4041 102.064 42.3765V37.5085C102.064 37.4807 102.09 37.4586 102.122 37.4586H104.739C104.772 37.4586 104.798 37.4807 104.798 37.5085V49.6266C104.798 49.6542 104.772 49.6765 104.739 49.6765H102.122C102.09 49.6765 102.064 49.6542 102.064 49.6266V44.7951C102.064 44.7674 102.037 44.7452 102.005 44.7452H99.0726C99.0402 44.7452 99.0138 44.7674 99.0138 44.7951Z" fill="white"/>
<path d="M113.218 45.1979C113.21 45.2221 113.227 45.2473 113.256 45.2539C113.26 45.2548 113.265 45.2552 113.27 45.2552L115.174 45.2671C115.204 45.2671 115.228 45.2467 115.228 45.2213C115.228 45.2173 115.227 45.2136 115.226 45.2094L114.299 42.1183C114.293 42.0937 114.263 42.0787 114.235 42.0845C114.216 42.0887 114.201 42.1009 114.196 42.1169L113.218 45.1979ZM115.894 47.6165H112.499C112.472 47.6161 112.449 47.6314 112.442 47.6533L111.819 49.6403C111.812 49.6622 111.789 49.6775 111.762 49.6772H109.143C109.111 49.6766 109.085 49.6536 109.086 49.626C109.086 49.6219 109.087 49.6177 109.088 49.614L112.916 37.4961C112.923 37.4742 112.946 37.4589 112.973 37.4593H115.617C115.645 37.4593 115.668 37.4751 115.674 37.4976L119.274 49.6153C119.282 49.6424 119.263 49.6694 119.231 49.6759C119.227 49.6768 119.222 49.6772 119.218 49.6772H116.604C116.577 49.6772 116.553 49.6615 116.547 49.639L115.95 47.6547C115.944 47.6321 115.92 47.6165 115.894 47.6165Z" fill="white"/>
<path d="M90.6649 46.9867C87.631 46.9771 84.5433 46.9784 81.4013 46.9911C80.7081 46.9942 80.1542 46.9259 79.74 46.7865C78.3293 46.3111 77.4252 45.2367 77.3596 43.9441C77.3564 43.8853 77.3896 43.8559 77.4596 43.8559H79.728C79.7881 43.8559 79.8201 43.8811 79.8249 43.9324C79.8697 44.4269 80.3455 44.8846 80.9511 44.8846C85.5787 44.8877 90.0334 44.8873 94.3148 44.8833C94.3885 44.8833 94.4197 44.9147 94.4081 44.9775C93.7301 48.7075 89.7453 51.4442 85.3758 51.1542C82.7688 50.9815 80.6509 49.9825 79.0225 48.1571C78.9592 48.0864 78.9796 48.0512 79.0829 48.0512H82.1501C82.2589 48.0512 82.3654 48.0792 82.4555 48.1322C85.1757 49.7485 88.6363 49.2745 90.7166 47.0796C90.7738 47.0178 90.7566 46.9867 90.6649 46.9867Z" fill="white"/>
<path d="M12.8432 37.4593H15.3858C15.4458 37.4593 15.4946 37.5011 15.4946 37.5523V49.5848C15.4946 49.636 15.4458 49.6772 15.3858 49.6772H12.8432C12.7832 49.6772 12.7344 49.636 12.7344 49.5848V37.5523C12.7344 37.5011 12.7832 37.4593 12.8432 37.4593Z" fill="white"/>
<path d="M4.85834 45.1979C4.85073 45.2221 4.86794 45.2473 4.89636 45.2539C4.90076 45.2548 4.90556 45.2552 4.91037 45.2552L6.81455 45.2671C6.84417 45.2671 6.86818 45.2467 6.86818 45.2213C6.86818 45.2173 6.86778 45.2136 6.86658 45.2094L5.9401 42.1183C5.9333 42.0937 5.90408 42.0787 5.87566 42.0845C5.85685 42.0887 5.84165 42.1009 5.83645 42.1169L4.85834 45.1979ZM7.53413 47.6165H4.13916C4.11275 47.6161 4.08913 47.6314 4.08233 47.6533L3.45961 49.6403C3.45241 49.6622 3.42919 49.6775 3.40237 49.6772H0.783808C0.751791 49.6766 0.72578 49.6536 0.72658 49.626C0.726981 49.6219 0.727373 49.6177 0.728974 49.614L4.55658 37.4961C4.56378 37.4742 4.58699 37.4589 4.6134 37.4593H7.25799C7.2852 37.4593 7.30841 37.4751 7.31481 37.4976L10.9151 49.6153C10.9227 49.6424 10.9035 49.6694 10.8719 49.6759C10.8675 49.6768 10.8627 49.6772 10.8583 49.6772H8.2445C8.21769 49.6772 8.19408 49.6615 8.18767 49.639L7.59096 47.6547C7.58456 47.6321 7.56094 47.6165 7.53413 47.6165Z" fill="white"/>
<g filter="url(#filter0_d_1434_79)">
<mask id="path-13-inside-1_1434_79" fill="white">
<path d="M59.2366 29.873C57.8854 29.389 56.5901 28.9336 55.3514 28.5065C55.0721 28.4116 55.0411 28.457 55.2584 28.6427C55.3824 28.7485 55.5224 28.8522 55.6818 28.9071C57.8595 29.669 59.9409 30.3963 61.9262 31.089C62.3227 31.2273 62.7106 31.1887 63.0904 30.9731C63.1731 30.927 63.1823 30.8708 63.1173 30.8044C62.8997 30.5806 62.7351 30.3286 62.6228 30.0478C62.5887 29.9611 62.5219 29.9279 62.4232 29.9483C61.9974 30.035 61.5707 30.0045 61.1436 29.8568C61.0625 29.8272 60.9709 29.834 60.8953 29.8751C60.4532 30.1109 59.9004 30.1103 59.2366 29.873ZM63.9064 28.5431L63.1793 29.7123C63.0352 29.9434 63.1224 30.2378 63.3744 30.3701L63.3765 30.3711L63.7648 30.5745C64.3846 30.8991 65.1649 30.7163 65.5072 30.1662L65.5164 30.1517C65.8587 29.6015 65.6339 28.8924 65.0137 28.5679L64.6227 28.3641C64.371 28.2325 64.0505 28.3125 63.9064 28.5431ZM67.8028 27.7032C68.3151 27.9758 68.6829 28.7891 68.388 29.3545C67.9868 30.121 67.124 30.5379 66.2504 30.117C66.1765 30.0804 66.1203 30.096 66.0818 30.1637C66.0185 30.2709 65.9865 30.3821 65.9865 30.4973C65.9851 30.5596 66.0086 30.6125 66.0576 30.6559C66.4493 31.0016 66.8536 31.3439 67.2705 31.6828C68.5811 32.7422 70.5368 31.9106 70.6523 30.3427C70.6833 29.9306 70.5525 29.6025 70.2595 29.3585C69.6519 28.8474 68.998 28.2869 68.297 27.6767C68.1554 27.5534 67.9926 27.4815 67.8093 27.4613C66.9565 27.3704 66.2743 27.6416 65.7627 28.2746C65.7123 28.337 65.714 28.3987 65.7671 28.4597C66.0982 28.8365 66.2484 29.2569 66.217 29.7205C66.2126 29.7937 66.2446 29.8486 66.3124 29.8852C67.4677 30.5217 68.8161 29.2548 67.9513 28.2259C67.8359 28.0876 67.7473 27.9438 67.685 27.7947C67.6305 27.6632 67.6697 27.6327 67.8028 27.7032ZM61.7134 27.2436L60.7577 28.2706C60.5717 28.4704 60.5972 28.7708 60.8152 28.9415L61.1391 29.1959C61.681 29.6199 62.4811 29.5763 62.9266 29.0982L62.9443 29.0799C63.3898 28.6017 63.3114 27.8699 62.7695 27.4453L62.4453 27.1908C62.2273 27.0201 61.8993 27.0439 61.7134 27.2436ZM56.6777 28.0753C55.4859 27.6348 54.2366 27.1969 52.93 26.7617C52.8442 26.7333 52.8213 26.7563 52.8612 26.8309C52.9765 27.041 53.1473 27.1866 53.3734 27.268C55.2302 27.931 57.3524 28.6712 59.74 29.4887C59.9794 29.5714 60.2144 29.5802 60.445 29.5152C60.5117 29.4962 60.5492 29.4313 60.5284 29.3702C60.5247 29.3587 60.5189 29.348 60.5114 29.3382C60.3387 29.1131 60.2246 28.8726 60.1701 28.6163C60.148 28.5146 60.0823 28.476 59.9726 28.5004C59.4641 28.6169 58.974 28.5986 58.5026 28.4455C57.8905 28.2482 57.303 28.3092 56.6777 28.0753ZM70.9005 25.4684C70.905 25.9591 70.6744 26.3713 70.2088 26.7047C69.5457 27.1765 68.8737 27.0099 68.2705 26.5665C68.185 26.5041 68.153 26.5224 68.1751 26.6214C68.2167 26.8099 68.3171 26.9745 68.4769 27.1155C69.3239 27.8693 70.173 28.5946 71.0249 29.2914C72.4196 30.4321 74.3198 29.5558 74.4553 27.8902C74.4625 27.8035 74.4196 27.7499 74.3266 27.7297C73.7649 27.605 73.3273 27.4097 73.0139 27.1441C72.3382 26.5733 71.6635 26.0026 70.9891 25.4318C70.9673 25.4138 70.9336 25.4155 70.9142 25.4356C70.9053 25.4446 70.9005 25.4564 70.9005 25.4684ZM59.3629 24.5105C59.1834 25.4338 58.5336 26.1537 57.5489 26.4302C57.3984 26.4736 57.35 26.5631 57.4048 26.6986C57.7359 27.5324 58.3149 27.9859 59.1412 28.0591C61.6582 28.2848 62.23 24.899 59.4981 24.4251C59.4229 24.4129 59.3776 24.4415 59.3629 24.5105ZM57.13 27.6767C57.1678 27.6899 57.21 27.6726 57.2243 27.6379C57.2311 27.6216 57.2308 27.6034 57.223 27.5873L56.804 26.6601C56.7965 26.6435 56.7822 26.6303 56.7639 26.6235L50.2401 24.3153C50.2022 24.3028 50.1601 24.3207 50.1464 24.3556C50.1403 24.3709 50.1406 24.3877 50.1471 24.4028L50.5905 25.3748C50.598 25.3914 50.6123 25.4046 50.6304 25.4114L57.13 27.6767ZM69.7585 24.1222C68.7851 24.3256 68.0532 25.0251 68.0443 25.9544C68.0443 26.0233 68.0757 26.0894 68.1308 26.1374C68.3924 26.3611 68.6714 26.5415 68.967 26.6784C69.9493 27.1298 71.1468 25.7897 70.406 24.9641C70.202 24.7377 70.0484 24.4882 69.9448 24.2158C69.9138 24.1344 69.8515 24.1032 69.7585 24.1222ZM69.732 23.1664L69.2841 23.6342C69.2173 23.7047 69.235 23.7365 69.3372 23.7297C69.7333 23.7026 69.8989 23.523 69.8338 23.1908C69.8192 23.1176 69.7851 23.1095 69.732 23.1664ZM58.8217 24.1975C58.8217 23.1968 57.9372 22.3855 56.8459 22.3855C55.755 22.3855 54.8701 23.1968 54.8701 24.1975C54.8701 25.1981 55.755 26.0093 56.8459 26.0093C57.9372 26.0093 58.8217 25.1981 58.8217 24.1975ZM70.812 23.3414C70.8426 23.3199 70.8866 23.3244 70.9114 23.3515C71.5146 24.0185 72.1277 24.1243 72.75 23.6687C73.6015 23.0465 73.3198 22.471 72.7898 21.7734C72.4261 21.2956 71.5436 21.6738 71.1621 21.9442C70.437 22.4527 70.1931 23.4064 70.5569 24.1344C70.7047 24.4312 70.9775 24.7452 71.375 25.0759C72.0804 25.6616 72.7197 26.2011 73.2932 26.6946C73.8637 27.1853 74.5047 27.3447 75.2159 27.1725C76.6992 26.8147 77.3289 25.0841 76.1825 24.0835C75.3163 23.3284 74.362 22.5285 73.3198 21.684C73.126 21.5267 73.0684 21.5613 73.1468 21.7877C73.2111 21.9768 73.3862 22.1354 73.4574 22.3287C73.6525 22.856 73.5143 23.3231 73.0425 23.7297C72.2667 24.3967 71.4956 24.3235 70.7299 23.5101C70.6962 23.4758 70.6999 23.4226 70.7384 23.3911C70.7408 23.3894 70.7429 23.3876 70.7452 23.386L70.812 23.3414ZM54.5708 22.9367C53.267 22.4384 51.921 22.0235 50.5928 21.5294C49.9407 21.2875 49.2888 21.3016 48.8941 21.9076C48.3864 22.6865 48.8808 23.3271 49.7035 23.6077C51.2749 24.1405 52.8664 24.6943 54.4778 25.269C54.5708 25.303 54.5967 25.278 54.5554 25.1939C54.205 24.4984 54.2309 23.7982 54.6331 23.0932C54.6743 23.02 54.6539 22.9679 54.5708 22.9367ZM73.7809 20.6022C73.8021 20.5678 73.8498 20.5561 73.8882 20.5761C73.8954 20.5797 73.9019 20.5845 73.9073 20.59C74.6658 21.3857 75.394 21.387 76.0915 20.594C76.5861 20.0307 76.1494 19.4166 75.737 18.9448C75.5418 18.7212 75.2336 18.7639 74.974 18.8411C74.1018 19.1014 73.5919 19.6369 73.4441 20.4476C73.3951 20.712 73.3886 21.0698 73.6325 21.261C74.7234 22.1164 75.7414 22.9773 76.6859 23.8437C77.0718 24.1975 76.9788 24.4922 77.6838 24.4984C79.7304 24.5126 80.5244 22.3998 79.052 21.1451C78.1518 20.3792 77.3194 19.6871 76.5551 19.0689C76.456 18.9902 76.3385 18.9361 76.2026 18.9062C76.0282 18.8669 75.9992 18.9103 76.1161 19.0364C76.6971 19.6708 76.7169 20.4273 76.0496 20.9844C75.3031 21.6095 74.5425 21.5525 73.7677 20.8136C73.7254 20.7723 73.7176 20.7105 73.7479 20.6611L73.7809 20.6022ZM63.6936 17.68C62.4518 18.69 61.1827 19.7013 59.8861 20.7141C59.365 21.1207 58.7488 21.8447 58.7086 22.5035C58.7042 22.5848 58.7294 22.6567 58.7843 22.7191C59.0693 23.0404 59.2468 23.3989 59.3163 23.7947C59.3295 23.8679 59.3762 23.9114 59.4559 23.9249C61.1013 24.196 61.9003 25.063 61.853 26.5259C61.8503 26.6031 61.8915 26.6437 61.9773 26.6479C62.854 26.6803 63.446 27.0911 63.7535 27.8801C63.7832 27.956 63.8407 27.9825 63.9265 27.9594C64.3465 27.8483 64.7426 27.8788 65.1152 28.0509C65.1847 28.0835 65.2423 28.07 65.2879 28.0103C65.841 27.2958 66.6029 26.9447 67.5743 26.9569C67.6646 26.9582 67.6962 26.9197 67.6697 26.841C67.3046 25.751 67.5692 24.8461 68.4636 24.1262C68.5729 24.0381 68.5559 24.009 68.4125 24.0389C67.6291 24.1988 66.8958 24.0206 66.2126 23.504C64.3989 22.1334 63.933 19.801 63.8646 17.7471C63.8632 17.6955 63.8165 17.6545 63.7603 17.6556C63.7355 17.6561 63.712 17.6648 63.6936 17.68ZM72.9009 21.013C72.6812 18.7679 75.4022 17.3668 77.2669 18.955C77.8878 19.4851 78.4771 19.9914 79.0343 20.4741C79.1095 20.5391 79.1783 20.5337 79.2407 20.4577C80.6405 18.7605 80.8939 16.9262 80.0012 14.9552C79.9702 14.8871 79.9185 14.8384 79.8459 14.8087C79.6153 14.7109 79.3313 14.715 79.0854 14.646C77.5227 14.2068 76.4805 13.2664 75.9587 11.8256C75.9281 11.7419 75.8524 11.6788 75.7591 11.6588C73.1853 11.1016 70.9775 11.6691 69.1352 13.3607C69.0838 13.4082 69.075 13.4616 69.1087 13.5213C70.5916 16.1421 71.0238 18.9042 70.406 21.8081C70.3869 21.9002 70.4111 21.9118 70.4792 21.8426C71.1178 21.2 71.8941 20.9499 72.8075 21.0923C72.8756 21.1032 72.9066 21.0767 72.9009 21.013ZM68.0866 22.6926C68.0389 22.7223 67.9742 22.7109 67.9418 22.6673C67.9364 22.6601 67.9323 22.6521 67.9292 22.6439C67.3325 21.021 67.887 19.4512 70.029 19.4857C70.0756 19.4869 70.1141 19.4541 70.1155 19.4126V19.4105C70.109 16.4578 69.0954 13.192 66.2681 11.6669C64.2147 10.5565 61.899 10.3092 59.3207 10.9245C58.7396 11.0628 58.1235 11.2228 57.4713 11.4045C56.691 11.6229 55.803 11.6647 54.8082 11.5307C54.7312 11.5198 54.6706 11.5435 54.6263 11.6016L48.5415 19.5468C48.4795 19.6281 48.4891 19.7013 48.5704 19.7664C48.8778 20.0145 49.1876 20.2842 49.4994 20.5757C49.9031 20.9539 50.5417 20.9865 51.0717 21.1695C52.3165 21.6006 53.5981 22.0514 54.9168 22.5218C54.9863 22.5462 55.0513 22.5374 55.112 22.4954C56.0728 21.8066 57.0574 21.7057 58.0656 22.1924C58.1194 22.2193 58.1872 22.2002 58.2168 22.1498C58.2202 22.144 58.2233 22.1378 58.2253 22.1314C58.4294 21.5159 58.7522 21.0278 59.1943 20.6672C60.5959 19.5217 62.0608 18.3348 63.5894 17.1066C63.7763 16.9562 64.0607 16.9736 64.2246 17.145C64.2876 17.211 64.3261 17.2937 64.3346 17.3811C64.3983 18.0359 64.4667 18.6547 64.5406 19.2377C64.7337 20.7587 65.5696 22.8512 67.215 23.4695C69.497 24.3275 70.109 21.1329 70.1243 19.8416C70.126 19.7711 70.0876 19.7345 70.0092 19.7318C68.0045 19.681 67.6717 21.1491 68.1686 22.5909C68.1775 22.6181 68.1693 22.6398 68.1441 22.656L68.0866 22.6926ZM68.5876 9.26315C66.5719 9.53988 64.5406 9.75321 62.5274 9.96685C62.134 10.0087 62.1347 10.0468 62.5294 10.0805C64.7579 10.272 66.716 10.951 68.2218 12.5127C68.2766 12.5683 68.3444 12.5995 68.4258 12.6064C68.8352 12.6361 69.1894 12.5574 69.4881 12.3706C69.8856 12.1223 70.3144 11.8771 70.7742 11.6344C71.0668 11.4798 71.1066 11.2012 71.0913 10.9185C71.0157 9.53988 69.9537 9.07419 68.5876 9.26315ZM55.1627 9.99839C55.1951 9.95592 55.1838 9.89782 55.1375 9.86815L52.2278 7.99974C52.1816 7.97007 52.1179 7.98007 52.0857 8.02255L43.8895 18.7567C43.8571 18.799 43.8685 18.8574 43.9146 18.887L46.8246 20.7556C46.8706 20.7852 46.9343 20.7749 46.9665 20.7326L55.1627 9.99839ZM84.383 10.6156C84.383 8.57039 82.5751 6.9125 80.3449 6.9125C78.1147 6.9125 76.3068 8.57039 76.3068 10.6156C76.3068 12.6608 78.1147 14.3187 80.3449 14.3187C82.5751 14.3187 84.383 12.6608 84.383 10.6156ZM85.5914 3.99652C85.5788 3.94123 85.5962 3.88376 85.638 3.84191L88.0862 1.45034C88.1203 1.41661 88.1179 1.36382 88.0811 1.33259C88.0709 1.32416 88.059 1.31791 88.0461 1.31416C88.0031 1.30323 87.9595 1.29917 87.9153 1.30198C87.7841 1.31104 87.6629 1.36351 87.576 1.44847L83.0655 5.84274C82.9978 5.90927 82.9157 5.95456 82.8196 5.97892C82.7382 6.00079 82.682 5.99329 82.651 5.95675C82.5564 5.84681 82.5608 5.74061 82.6643 5.63754L86.8863 1.52374C87.0461 1.36757 87.0093 1.29261 86.7756 1.29792L86.4384 1.30604C86.2048 1.31135 86.0113 1.39537 85.8574 1.5581L81.3115 6.38777C81.2362 6.46773 81.2546 6.51927 81.367 6.54238C83.4913 6.99996 84.7709 8.55946 84.9129 10.5038C84.9187 10.5959 84.964 10.6162 85.0481 10.5647L93.9979 5.07814C94.0919 5.02098 94.1485 4.92478 94.1488 4.82202V1.53186C94.1488 1.39755 94.0763 1.3304 93.9315 1.3304L88.9643 1.32853C88.8805 1.32853 88.8005 1.36007 88.7426 1.41598L85.9616 4.11021C85.9303 4.1405 85.8887 4.1608 85.8441 4.16736C85.7051 4.18485 85.621 4.12801 85.5914 3.99652ZM25.8899 10.2536C25.8899 10.2942 25.9113 10.332 25.9475 10.3551L41.725 20.4882C41.7862 20.5276 41.8705 20.514 41.9134 20.4578L53.4023 5.42171C53.4451 5.36581 53.4304 5.28835 53.3691 5.24899L47.2953 1.34071C47.2725 1.32603 47.2455 1.31822 47.2177 1.31822L25.9808 1.32228C25.9061 1.32228 25.8454 1.37788 25.8454 1.44628L25.8899 10.2536ZM71.1866 30.174C71.2422 31.3412 70.406 32.364 69.1577 32.6019C67.5787 32.9049 66.6608 31.9065 65.6585 30.9894C65.5934 30.9304 65.4923 30.9219 65.4166 30.9691C64.9289 31.2728 64.3908 31.3418 63.8022 31.1765C63.7167 31.1521 63.6418 31.1683 63.5785 31.2253C63.0492 31.6916 62.4106 31.7953 61.6626 31.5364C59.6194 30.826 57.5993 30.1225 55.6021 29.4256C55.0241 29.2237 54.644 28.8495 54.4621 28.3031C54.4328 28.2124 54.3691 28.1512 54.2714 28.1201C53.3647 27.8273 52.4554 27.6321 52.2004 26.6315C52.1808 26.5547 52.1227 26.4901 52.043 26.4567C50.85 25.9524 49.6258 25.8446 49.7412 24.3275C49.7516 24.2029 49.6917 24.1228 49.5616 24.0877C47.9894 23.6605 47.5592 21.8142 49.1003 21.0618C49.1846 21.0197 49.192 20.9689 49.1225 20.9093L48.2444 20.1466C48.1779 20.0884 48.118 20.0945 48.0648 20.1649L47.1312 21.4034C47.0766 21.4753 47.01 21.4861 46.9317 21.436L43.5921 19.2784C43.5489 19.2512 43.4906 19.2602 43.4612 19.2987L42.0465 21.1674C42.0069 21.2202 41.9281 21.2333 41.8707 21.1969L41.8692 21.196L25.5527 10.7112C25.418 10.6246 25.3384 10.4831 25.3399 10.3329L25.3577 1.32634C25.3577 1.0771 25.5791 0.875013 25.8521 0.875013L47.1666 0.844404C47.3802 0.843155 47.5893 0.902811 47.7655 1.01525L54.1317 5.11281C54.2053 5.15966 54.224 5.25149 54.1736 5.3177L54.1719 5.32021L52.533 7.4391C52.4961 7.48689 52.5084 7.55279 52.5602 7.58652L52.5618 7.58746L55.9059 9.73916C55.9577 9.77102 55.9709 9.8363 55.9352 9.88471L55.1232 10.9429C55.0551 11.031 55.0803 11.0791 55.1985 11.0872C56.0973 11.1525 56.9539 11.0582 57.7686 10.8045C58.7073 10.5119 59.6477 10.2923 60.5891 10.1458C60.6691 10.1336 60.7413 10.1046 60.8064 10.0584C61.2396 9.74915 61.6773 9.56893 62.1194 9.5174C64.1595 9.27627 66.1734 9.03952 68.1618 8.80776C68.9047 8.72031 69.703 8.58194 70.3995 8.95425C71.3321 9.4543 71.7285 10.1986 71.5879 11.1868C71.5746 11.2765 71.6144 11.3071 71.7078 11.2784C72.9938 10.8826 74.3082 10.8405 75.6505 11.1525C75.7302 11.1712 75.7687 11.1428 75.7656 11.0669C75.7022 8.84087 76.7857 7.3504 79.0166 6.59517C79.352 6.48272 79.817 6.43056 80.4113 6.43868C80.5073 6.43993 80.5867 6.40808 80.6487 6.34311L85.6847 0.999014C85.7886 0.887821 85.9402 0.8241 86.0992 0.8241L94.1376 0.836283C94.4237 0.837532 94.6553 1.05055 94.6566 1.31416L94.6655 4.8239C94.6669 5.09314 94.5211 5.34519 94.2772 5.49511L84.995 11.1809C84.93 11.2203 84.8877 11.2743 84.8686 11.3436C84.3067 13.4082 82.8918 14.5632 80.6242 14.8087C80.54 14.8168 80.5142 14.8568 80.5465 14.9286C81.4617 17.0109 81.1521 18.9733 79.6174 20.8157C79.57 20.8713 79.5724 20.9262 79.6242 20.9804C80.3513 21.7301 80.5438 22.5367 80.2008 23.4003C79.7543 24.5214 78.8228 25.0468 77.4066 24.9762C77.3344 24.9722 77.2986 25.0033 77.3003 25.0698C77.3521 26.5204 76.6126 27.407 75.0827 27.7297C75.0088 27.7446 74.972 27.7859 74.972 27.8536C74.9431 29.6372 73.1359 30.8572 71.3283 30.0886C71.2296 30.0465 71.1822 30.0751 71.1866 30.174Z"/>
</mask>
<path d="M59.2366 29.873C57.8854 29.389 56.5901 28.9336 55.3514 28.5065C55.0721 28.4116 55.0411 28.457 55.2584 28.6427C55.3824 28.7485 55.5224 28.8522 55.6818 28.9071C57.8595 29.669 59.9409 30.3963 61.9262 31.089C62.3227 31.2273 62.7106 31.1887 63.0904 30.9731C63.1731 30.927 63.1823 30.8708 63.1173 30.8044C62.8997 30.5806 62.7351 30.3286 62.6228 30.0478C62.5887 29.9611 62.5219 29.9279 62.4232 29.9483C61.9974 30.035 61.5707 30.0045 61.1436 29.8568C61.0625 29.8272 60.9709 29.834 60.8953 29.8751C60.4532 30.1109 59.9004 30.1103 59.2366 29.873ZM63.9064 28.5431L63.1793 29.7123C63.0352 29.9434 63.1224 30.2378 63.3744 30.3701L63.3765 30.3711L63.7648 30.5745C64.3846 30.8991 65.1649 30.7163 65.5072 30.1662L65.5164 30.1517C65.8587 29.6015 65.6339 28.8924 65.0137 28.5679L64.6227 28.3641C64.371 28.2325 64.0505 28.3125 63.9064 28.5431ZM67.8028 27.7032C68.3151 27.9758 68.6829 28.7891 68.388 29.3545C67.9868 30.121 67.124 30.5379 66.2504 30.117C66.1765 30.0804 66.1203 30.096 66.0818 30.1637C66.0185 30.2709 65.9865 30.3821 65.9865 30.4973C65.9851 30.5596 66.0086 30.6125 66.0576 30.6559C66.4493 31.0016 66.8536 31.3439 67.2705 31.6828C68.5811 32.7422 70.5368 31.9106 70.6523 30.3427C70.6833 29.9306 70.5525 29.6025 70.2595 29.3585C69.6519 28.8474 68.998 28.2869 68.297 27.6767C68.1554 27.5534 67.9926 27.4815 67.8093 27.4613C66.9565 27.3704 66.2743 27.6416 65.7627 28.2746C65.7123 28.337 65.714 28.3987 65.7671 28.4597C66.0982 28.8365 66.2484 29.2569 66.217 29.7205C66.2126 29.7937 66.2446 29.8486 66.3124 29.8852C67.4677 30.5217 68.8161 29.2548 67.9513 28.2259C67.8359 28.0876 67.7473 27.9438 67.685 27.7947C67.6305 27.6632 67.6697 27.6327 67.8028 27.7032ZM61.7134 27.2436L60.7577 28.2706C60.5717 28.4704 60.5972 28.7708 60.8152 28.9415L61.1391 29.1959C61.681 29.6199 62.4811 29.5763 62.9266 29.0982L62.9443 29.0799C63.3898 28.6017 63.3114 27.8699 62.7695 27.4453L62.4453 27.1908C62.2273 27.0201 61.8993 27.0439 61.7134 27.2436ZM56.6777 28.0753C55.4859 27.6348 54.2366 27.1969 52.93 26.7617C52.8442 26.7333 52.8213 26.7563 52.8612 26.8309C52.9765 27.041 53.1473 27.1866 53.3734 27.268C55.2302 27.931 57.3524 28.6712 59.74 29.4887C59.9794 29.5714 60.2144 29.5802 60.445 29.5152C60.5117 29.4962 60.5492 29.4313 60.5284 29.3702C60.5247 29.3587 60.5189 29.348 60.5114 29.3382C60.3387 29.1131 60.2246 28.8726 60.1701 28.6163C60.148 28.5146 60.0823 28.476 59.9726 28.5004C59.4641 28.6169 58.974 28.5986 58.5026 28.4455C57.8905 28.2482 57.303 28.3092 56.6777 28.0753ZM70.9005 25.4684C70.905 25.9591 70.6744 26.3713 70.2088 26.7047C69.5457 27.1765 68.8737 27.0099 68.2705 26.5665C68.185 26.5041 68.153 26.5224 68.1751 26.6214C68.2167 26.8099 68.3171 26.9745 68.4769 27.1155C69.3239 27.8693 70.173 28.5946 71.0249 29.2914C72.4196 30.4321 74.3198 29.5558 74.4553 27.8902C74.4625 27.8035 74.4196 27.7499 74.3266 27.7297C73.7649 27.605 73.3273 27.4097 73.0139 27.1441C72.3382 26.5733 71.6635 26.0026 70.9891 25.4318C70.9673 25.4138 70.9336 25.4155 70.9142 25.4356C70.9053 25.4446 70.9005 25.4564 70.9005 25.4684ZM59.3629 24.5105C59.1834 25.4338 58.5336 26.1537 57.5489 26.4302C57.3984 26.4736 57.35 26.5631 57.4048 26.6986C57.7359 27.5324 58.3149 27.9859 59.1412 28.0591C61.6582 28.2848 62.23 24.899 59.4981 24.4251C59.4229 24.4129 59.3776 24.4415 59.3629 24.5105ZM57.13 27.6767C57.1678 27.6899 57.21 27.6726 57.2243 27.6379C57.2311 27.6216 57.2308 27.6034 57.223 27.5873L56.804 26.6601C56.7965 26.6435 56.7822 26.6303 56.7639 26.6235L50.2401 24.3153C50.2022 24.3028 50.1601 24.3207 50.1464 24.3556C50.1403 24.3709 50.1406 24.3877 50.1471 24.4028L50.5905 25.3748C50.598 25.3914 50.6123 25.4046 50.6304 25.4114L57.13 27.6767ZM69.7585 24.1222C68.7851 24.3256 68.0532 25.0251 68.0443 25.9544C68.0443 26.0233 68.0757 26.0894 68.1308 26.1374C68.3924 26.3611 68.6714 26.5415 68.967 26.6784C69.9493 27.1298 71.1468 25.7897 70.406 24.9641C70.202 24.7377 70.0484 24.4882 69.9448 24.2158C69.9138 24.1344 69.8515 24.1032 69.7585 24.1222ZM69.732 23.1664L69.2841 23.6342C69.2173 23.7047 69.235 23.7365 69.3372 23.7297C69.7333 23.7026 69.8989 23.523 69.8338 23.1908C69.8192 23.1176 69.7851 23.1095 69.732 23.1664ZM58.8217 24.1975C58.8217 23.1968 57.9372 22.3855 56.8459 22.3855C55.755 22.3855 54.8701 23.1968 54.8701 24.1975C54.8701 25.1981 55.755 26.0093 56.8459 26.0093C57.9372 26.0093 58.8217 25.1981 58.8217 24.1975ZM70.812 23.3414C70.8426 23.3199 70.8866 23.3244 70.9114 23.3515C71.5146 24.0185 72.1277 24.1243 72.75 23.6687C73.6015 23.0465 73.3198 22.471 72.7898 21.7734C72.4261 21.2956 71.5436 21.6738 71.1621 21.9442C70.437 22.4527 70.1931 23.4064 70.5569 24.1344C70.7047 24.4312 70.9775 24.7452 71.375 25.0759C72.0804 25.6616 72.7197 26.2011 73.2932 26.6946C73.8637 27.1853 74.5047 27.3447 75.2159 27.1725C76.6992 26.8147 77.3289 25.0841 76.1825 24.0835C75.3163 23.3284 74.362 22.5285 73.3198 21.684C73.126 21.5267 73.0684 21.5613 73.1468 21.7877C73.2111 21.9768 73.3862 22.1354 73.4574 22.3287C73.6525 22.856 73.5143 23.3231 73.0425 23.7297C72.2667 24.3967 71.4956 24.3235 70.7299 23.5101C70.6962 23.4758 70.6999 23.4226 70.7384 23.3911C70.7408 23.3894 70.7429 23.3876 70.7452 23.386L70.812 23.3414ZM54.5708 22.9367C53.267 22.4384 51.921 22.0235 50.5928 21.5294C49.9407 21.2875 49.2888 21.3016 48.8941 21.9076C48.3864 22.6865 48.8808 23.3271 49.7035 23.6077C51.2749 24.1405 52.8664 24.6943 54.4778 25.269C54.5708 25.303 54.5967 25.278 54.5554 25.1939C54.205 24.4984 54.2309 23.7982 54.6331 23.0932C54.6743 23.02 54.6539 22.9679 54.5708 22.9367ZM73.7809 20.6022C73.8021 20.5678 73.8498 20.5561 73.8882 20.5761C73.8954 20.5797 73.9019 20.5845 73.9073 20.59C74.6658 21.3857 75.394 21.387 76.0915 20.594C76.5861 20.0307 76.1494 19.4166 75.737 18.9448C75.5418 18.7212 75.2336 18.7639 74.974 18.8411C74.1018 19.1014 73.5919 19.6369 73.4441 20.4476C73.3951 20.712 73.3886 21.0698 73.6325 21.261C74.7234 22.1164 75.7414 22.9773 76.6859 23.8437C77.0718 24.1975 76.9788 24.4922 77.6838 24.4984C79.7304 24.5126 80.5244 22.3998 79.052 21.1451C78.1518 20.3792 77.3194 19.6871 76.5551 19.0689C76.456 18.9902 76.3385 18.9361 76.2026 18.9062C76.0282 18.8669 75.9992 18.9103 76.1161 19.0364C76.6971 19.6708 76.7169 20.4273 76.0496 20.9844C75.3031 21.6095 74.5425 21.5525 73.7677 20.8136C73.7254 20.7723 73.7176 20.7105 73.7479 20.6611L73.7809 20.6022ZM63.6936 17.68C62.4518 18.69 61.1827 19.7013 59.8861 20.7141C59.365 21.1207 58.7488 21.8447 58.7086 22.5035C58.7042 22.5848 58.7294 22.6567 58.7843 22.7191C59.0693 23.0404 59.2468 23.3989 59.3163 23.7947C59.3295 23.8679 59.3762 23.9114 59.4559 23.9249C61.1013 24.196 61.9003 25.063 61.853 26.5259C61.8503 26.6031 61.8915 26.6437 61.9773 26.6479C62.854 26.6803 63.446 27.0911 63.7535 27.8801C63.7832 27.956 63.8407 27.9825 63.9265 27.9594C64.3465 27.8483 64.7426 27.8788 65.1152 28.0509C65.1847 28.0835 65.2423 28.07 65.2879 28.0103C65.841 27.2958 66.6029 26.9447 67.5743 26.9569C67.6646 26.9582 67.6962 26.9197 67.6697 26.841C67.3046 25.751 67.5692 24.8461 68.4636 24.1262C68.5729 24.0381 68.5559 24.009 68.4125 24.0389C67.6291 24.1988 66.8958 24.0206 66.2126 23.504C64.3989 22.1334 63.933 19.801 63.8646 17.7471C63.8632 17.6955 63.8165 17.6545 63.7603 17.6556C63.7355 17.6561 63.712 17.6648 63.6936 17.68ZM72.9009 21.013C72.6812 18.7679 75.4022 17.3668 77.2669 18.955C77.8878 19.4851 78.4771 19.9914 79.0343 20.4741C79.1095 20.5391 79.1783 20.5337 79.2407 20.4577C80.6405 18.7605 80.8939 16.9262 80.0012 14.9552C79.9702 14.8871 79.9185 14.8384 79.8459 14.8087C79.6153 14.7109 79.3313 14.715 79.0854 14.646C77.5227 14.2068 76.4805 13.2664 75.9587 11.8256C75.9281 11.7419 75.8524 11.6788 75.7591 11.6588C73.1853 11.1016 70.9775 11.6691 69.1352 13.3607C69.0838 13.4082 69.075 13.4616 69.1087 13.5213C70.5916 16.1421 71.0238 18.9042 70.406 21.8081C70.3869 21.9002 70.4111 21.9118 70.4792 21.8426C71.1178 21.2 71.8941 20.9499 72.8075 21.0923C72.8756 21.1032 72.9066 21.0767 72.9009 21.013ZM68.0866 22.6926C68.0389 22.7223 67.9742 22.7109 67.9418 22.6673C67.9364 22.6601 67.9323 22.6521 67.9292 22.6439C67.3325 21.021 67.887 19.4512 70.029 19.4857C70.0756 19.4869 70.1141 19.4541 70.1155 19.4126V19.4105C70.109 16.4578 69.0954 13.192 66.2681 11.6669C64.2147 10.5565 61.899 10.3092 59.3207 10.9245C58.7396 11.0628 58.1235 11.2228 57.4713 11.4045C56.691 11.6229 55.803 11.6647 54.8082 11.5307C54.7312 11.5198 54.6706 11.5435 54.6263 11.6016L48.5415 19.5468C48.4795 19.6281 48.4891 19.7013 48.5704 19.7664C48.8778 20.0145 49.1876 20.2842 49.4994 20.5757C49.9031 20.9539 50.5417 20.9865 51.0717 21.1695C52.3165 21.6006 53.5981 22.0514 54.9168 22.5218C54.9863 22.5462 55.0513 22.5374 55.112 22.4954C56.0728 21.8066 57.0574 21.7057 58.0656 22.1924C58.1194 22.2193 58.1872 22.2002 58.2168 22.1498C58.2202 22.144 58.2233 22.1378 58.2253 22.1314C58.4294 21.5159 58.7522 21.0278 59.1943 20.6672C60.5959 19.5217 62.0608 18.3348 63.5894 17.1066C63.7763 16.9562 64.0607 16.9736 64.2246 17.145C64.2876 17.211 64.3261 17.2937 64.3346 17.3811C64.3983 18.0359 64.4667 18.6547 64.5406 19.2377C64.7337 20.7587 65.5696 22.8512 67.215 23.4695C69.497 24.3275 70.109 21.1329 70.1243 19.8416C70.126 19.7711 70.0876 19.7345 70.0092 19.7318C68.0045 19.681 67.6717 21.1491 68.1686 22.5909C68.1775 22.6181 68.1693 22.6398 68.1441 22.656L68.0866 22.6926ZM68.5876 9.26315C66.5719 9.53988 64.5406 9.75321 62.5274 9.96685C62.134 10.0087 62.1347 10.0468 62.5294 10.0805C64.7579 10.272 66.716 10.951 68.2218 12.5127C68.2766 12.5683 68.3444 12.5995 68.4258 12.6064C68.8352 12.6361 69.1894 12.5574 69.4881 12.3706C69.8856 12.1223 70.3144 11.8771 70.7742 11.6344C71.0668 11.4798 71.1066 11.2012 71.0913 10.9185C71.0157 9.53988 69.9537 9.07419 68.5876 9.26315ZM55.1627 9.99839C55.1951 9.95592 55.1838 9.89782 55.1375 9.86815L52.2278 7.99974C52.1816 7.97007 52.1179 7.98007 52.0857 8.02255L43.8895 18.7567C43.8571 18.799 43.8685 18.8574 43.9146 18.887L46.8246 20.7556C46.8706 20.7852 46.9343 20.7749 46.9665 20.7326L55.1627 9.99839ZM84.383 10.6156C84.383 8.57039 82.5751 6.9125 80.3449 6.9125C78.1147 6.9125 76.3068 8.57039 76.3068 10.6156C76.3068 12.6608 78.1147 14.3187 80.3449 14.3187C82.5751 14.3187 84.383 12.6608 84.383 10.6156ZM85.5914 3.99652C85.5788 3.94123 85.5962 3.88376 85.638 3.84191L88.0862 1.45034C88.1203 1.41661 88.1179 1.36382 88.0811 1.33259C88.0709 1.32416 88.059 1.31791 88.0461 1.31416C88.0031 1.30323 87.9595 1.29917 87.9153 1.30198C87.7841 1.31104 87.6629 1.36351 87.576 1.44847L83.0655 5.84274C82.9978 5.90927 82.9157 5.95456 82.8196 5.97892C82.7382 6.00079 82.682 5.99329 82.651 5.95675C82.5564 5.84681 82.5608 5.74061 82.6643 5.63754L86.8863 1.52374C87.0461 1.36757 87.0093 1.29261 86.7756 1.29792L86.4384 1.30604C86.2048 1.31135 86.0113 1.39537 85.8574 1.5581L81.3115 6.38777C81.2362 6.46773 81.2546 6.51927 81.367 6.54238C83.4913 6.99996 84.7709 8.55946 84.9129 10.5038C84.9187 10.5959 84.964 10.6162 85.0481 10.5647L93.9979 5.07814C94.0919 5.02098 94.1485 4.92478 94.1488 4.82202V1.53186C94.1488 1.39755 94.0763 1.3304 93.9315 1.3304L88.9643 1.32853C88.8805 1.32853 88.8005 1.36007 88.7426 1.41598L85.9616 4.11021C85.9303 4.1405 85.8887 4.1608 85.8441 4.16736C85.7051 4.18485 85.621 4.12801 85.5914 3.99652ZM25.8899 10.2536C25.8899 10.2942 25.9113 10.332 25.9475 10.3551L41.725 20.4882C41.7862 20.5276 41.8705 20.514 41.9134 20.4578L53.4023 5.42171C53.4451 5.36581 53.4304 5.28835 53.3691 5.24899L47.2953 1.34071C47.2725 1.32603 47.2455 1.31822 47.2177 1.31822L25.9808 1.32228C25.9061 1.32228 25.8454 1.37788 25.8454 1.44628L25.8899 10.2536ZM71.1866 30.174C71.2422 31.3412 70.406 32.364 69.1577 32.6019C67.5787 32.9049 66.6608 31.9065 65.6585 30.9894C65.5934 30.9304 65.4923 30.9219 65.4166 30.9691C64.9289 31.2728 64.3908 31.3418 63.8022 31.1765C63.7167 31.1521 63.6418 31.1683 63.5785 31.2253C63.0492 31.6916 62.4106 31.7953 61.6626 31.5364C59.6194 30.826 57.5993 30.1225 55.6021 29.4256C55.0241 29.2237 54.644 28.8495 54.4621 28.3031C54.4328 28.2124 54.3691 28.1512 54.2714 28.1201C53.3647 27.8273 52.4554 27.6321 52.2004 26.6315C52.1808 26.5547 52.1227 26.4901 52.043 26.4567C50.85 25.9524 49.6258 25.8446 49.7412 24.3275C49.7516 24.2029 49.6917 24.1228 49.5616 24.0877C47.9894 23.6605 47.5592 21.8142 49.1003 21.0618C49.1846 21.0197 49.192 20.9689 49.1225 20.9093L48.2444 20.1466C48.1779 20.0884 48.118 20.0945 48.0648 20.1649L47.1312 21.4034C47.0766 21.4753 47.01 21.4861 46.9317 21.436L43.5921 19.2784C43.5489 19.2512 43.4906 19.2602 43.4612 19.2987L42.0465 21.1674C42.0069 21.2202 41.9281 21.2333 41.8707 21.1969L41.8692 21.196L25.5527 10.7112C25.418 10.6246 25.3384 10.4831 25.3399 10.3329L25.3577 1.32634C25.3577 1.0771 25.5791 0.875013 25.8521 0.875013L47.1666 0.844404C47.3802 0.843155 47.5893 0.902811 47.7655 1.01525L54.1317 5.11281C54.2053 5.15966 54.224 5.25149 54.1736 5.3177L54.1719 5.32021L52.533 7.4391C52.4961 7.48689 52.5084 7.55279 52.5602 7.58652L52.5618 7.58746L55.9059 9.73916C55.9577 9.77102 55.9709 9.8363 55.9352 9.88471L55.1232 10.9429C55.0551 11.031 55.0803 11.0791 55.1985 11.0872C56.0973 11.1525 56.9539 11.0582 57.7686 10.8045C58.7073 10.5119 59.6477 10.2923 60.5891 10.1458C60.6691 10.1336 60.7413 10.1046 60.8064 10.0584C61.2396 9.74915 61.6773 9.56893 62.1194 9.5174C64.1595 9.27627 66.1734 9.03952 68.1618 8.80776C68.9047 8.72031 69.703 8.58194 70.3995 8.95425C71.3321 9.4543 71.7285 10.1986 71.5879 11.1868C71.5746 11.2765 71.6144 11.3071 71.7078 11.2784C72.9938 10.8826 74.3082 10.8405 75.6505 11.1525C75.7302 11.1712 75.7687 11.1428 75.7656 11.0669C75.7022 8.84087 76.7857 7.3504 79.0166 6.59517C79.352 6.48272 79.817 6.43056 80.4113 6.43868C80.5073 6.43993 80.5867 6.40808 80.6487 6.34311L85.6847 0.999014C85.7886 0.887821 85.9402 0.8241 86.0992 0.8241L94.1376 0.836283C94.4237 0.837532 94.6553 1.05055 94.6566 1.31416L94.6655 4.8239C94.6669 5.09314 94.5211 5.34519 94.2772 5.49511L84.995 11.1809C84.93 11.2203 84.8877 11.2743 84.8686 11.3436C84.3067 13.4082 82.8918 14.5632 80.6242 14.8087C80.54 14.8168 80.5142 14.8568 80.5465 14.9286C81.4617 17.0109 81.1521 18.9733 79.6174 20.8157C79.57 20.8713 79.5724 20.9262 79.6242 20.9804C80.3513 21.7301 80.5438 22.5367 80.2008 23.4003C79.7543 24.5214 78.8228 25.0468 77.4066 24.9762C77.3344 24.9722 77.2986 25.0033 77.3003 25.0698C77.3521 26.5204 76.6126 27.407 75.0827 27.7297C75.0088 27.7446 74.972 27.7859 74.972 27.8536C74.9431 29.6372 73.1359 30.8572 71.3283 30.0886C71.2296 30.0465 71.1822 30.0751 71.1866 30.174Z" fill="white"/>
<path d="M59.2366 29.873C57.8854 29.389 56.5901 28.9336 55.3514 28.5065C55.0721 28.4116 55.0411 28.457 55.2584 28.6427C55.3824 28.7485 55.5224 28.8522 55.6818 28.9071C57.8595 29.669 59.9409 30.3963 61.9262 31.089C62.3227 31.2273 62.7106 31.1887 63.0904 30.9731C63.1731 30.927 63.1823 30.8708 63.1173 30.8044C62.8997 30.5806 62.7351 30.3286 62.6228 30.0478C62.5887 29.9611 62.5219 29.9279 62.4232 29.9483C61.9974 30.035 61.5707 30.0045 61.1436 29.8568C61.0625 29.8272 60.9709 29.834 60.8953 29.8751C60.4532 30.1109 59.9004 30.1103 59.2366 29.873ZM63.9064 28.5431L63.1793 29.7123C63.0352 29.9434 63.1224 30.2378 63.3744 30.3701L63.3765 30.3711L63.7648 30.5745C64.3846 30.8991 65.1649 30.7163 65.5072 30.1662L65.5164 30.1517C65.8587 29.6015 65.6339 28.8924 65.0137 28.5679L64.6227 28.3641C64.371 28.2325 64.0505 28.3125 63.9064 28.5431ZM67.8028 27.7032C68.3151 27.9758 68.6829 28.7891 68.388 29.3545C67.9868 30.121 67.124 30.5379 66.2504 30.117C66.1765 30.0804 66.1203 30.096 66.0818 30.1637C66.0185 30.2709 65.9865 30.3821 65.9865 30.4973C65.9851 30.5596 66.0086 30.6125 66.0576 30.6559C66.4493 31.0016 66.8536 31.3439 67.2705 31.6828C68.5811 32.7422 70.5368 31.9106 70.6523 30.3427C70.6833 29.9306 70.5525 29.6025 70.2595 29.3585C69.6519 28.8474 68.998 28.2869 68.297 27.6767C68.1554 27.5534 67.9926 27.4815 67.8093 27.4613C66.9565 27.3704 66.2743 27.6416 65.7627 28.2746C65.7123 28.337 65.714 28.3987 65.7671 28.4597C66.0982 28.8365 66.2484 29.2569 66.217 29.7205C66.2126 29.7937 66.2446 29.8486 66.3124 29.8852C67.4677 30.5217 68.8161 29.2548 67.9513 28.2259C67.8359 28.0876 67.7473 27.9438 67.685 27.7947C67.6305 27.6632 67.6697 27.6327 67.8028 27.7032ZM61.7134 27.2436L60.7577 28.2706C60.5717 28.4704 60.5972 28.7708 60.8152 28.9415L61.1391 29.1959C61.681 29.6199 62.4811 29.5763 62.9266 29.0982L62.9443 29.0799C63.3898 28.6017 63.3114 27.8699 62.7695 27.4453L62.4453 27.1908C62.2273 27.0201 61.8993 27.0439 61.7134 27.2436ZM56.6777 28.0753C55.4859 27.6348 54.2366 27.1969 52.93 26.7617C52.8442 26.7333 52.8213 26.7563 52.8612 26.8309C52.9765 27.041 53.1473 27.1866 53.3734 27.268C55.2302 27.931 57.3524 28.6712 59.74 29.4887C59.9794 29.5714 60.2144 29.5802 60.445 29.5152C60.5117 29.4962 60.5492 29.4313 60.5284 29.3702C60.5247 29.3587 60.5189 29.348 60.5114 29.3382C60.3387 29.1131 60.2246 28.8726 60.1701 28.6163C60.148 28.5146 60.0823 28.476 59.9726 28.5004C59.4641 28.6169 58.974 28.5986 58.5026 28.4455C57.8905 28.2482 57.303 28.3092 56.6777 28.0753ZM70.9005 25.4684C70.905 25.9591 70.6744 26.3713 70.2088 26.7047C69.5457 27.1765 68.8737 27.0099 68.2705 26.5665C68.185 26.5041 68.153 26.5224 68.1751 26.6214C68.2167 26.8099 68.3171 26.9745 68.4769 27.1155C69.3239 27.8693 70.173 28.5946 71.0249 29.2914C72.4196 30.4321 74.3198 29.5558 74.4553 27.8902C74.4625 27.8035 74.4196 27.7499 74.3266 27.7297C73.7649 27.605 73.3273 27.4097 73.0139 27.1441C72.3382 26.5733 71.6635 26.0026 70.9891 25.4318C70.9673 25.4138 70.9336 25.4155 70.9142 25.4356C70.9053 25.4446 70.9005 25.4564 70.9005 25.4684ZM59.3629 24.5105C59.1834 25.4338 58.5336 26.1537 57.5489 26.4302C57.3984 26.4736 57.35 26.5631 57.4048 26.6986C57.7359 27.5324 58.3149 27.9859 59.1412 28.0591C61.6582 28.2848 62.23 24.899 59.4981 24.4251C59.4229 24.4129 59.3776 24.4415 59.3629 24.5105ZM57.13 27.6767C57.1678 27.6899 57.21 27.6726 57.2243 27.6379C57.2311 27.6216 57.2308 27.6034 57.223 27.5873L56.804 26.6601C56.7965 26.6435 56.7822 26.6303 56.7639 26.6235L50.2401 24.3153C50.2022 24.3028 50.1601 24.3207 50.1464 24.3556C50.1403 24.3709 50.1406 24.3877 50.1471 24.4028L50.5905 25.3748C50.598 25.3914 50.6123 25.4046 50.6304 25.4114L57.13 27.6767ZM69.7585 24.1222C68.7851 24.3256 68.0532 25.0251 68.0443 25.9544C68.0443 26.0233 68.0757 26.0894 68.1308 26.1374C68.3924 26.3611 68.6714 26.5415 68.967 26.6784C69.9493 27.1298 71.1468 25.7897 70.406 24.9641C70.202 24.7377 70.0484 24.4882 69.9448 24.2158C69.9138 24.1344 69.8515 24.1032 69.7585 24.1222ZM69.732 23.1664L69.2841 23.6342C69.2173 23.7047 69.235 23.7365 69.3372 23.7297C69.7333 23.7026 69.8989 23.523 69.8338 23.1908C69.8192 23.1176 69.7851 23.1095 69.732 23.1664ZM58.8217 24.1975C58.8217 23.1968 57.9372 22.3855 56.8459 22.3855C55.755 22.3855 54.8701 23.1968 54.8701 24.1975C54.8701 25.1981 55.755 26.0093 56.8459 26.0093C57.9372 26.0093 58.8217 25.1981 58.8217 24.1975ZM70.812 23.3414C70.8426 23.3199 70.8866 23.3244 70.9114 23.3515C71.5146 24.0185 72.1277 24.1243 72.75 23.6687C73.6015 23.0465 73.3198 22.471 72.7898 21.7734C72.4261 21.2956 71.5436 21.6738 71.1621 21.9442C70.437 22.4527 70.1931 23.4064 70.5569 24.1344C70.7047 24.4312 70.9775 24.7452 71.375 25.0759C72.0804 25.6616 72.7197 26.2011 73.2932 26.6946C73.8637 27.1853 74.5047 27.3447 75.2159 27.1725C76.6992 26.8147 77.3289 25.0841 76.1825 24.0835C75.3163 23.3284 74.362 22.5285 73.3198 21.684C73.126 21.5267 73.0684 21.5613 73.1468 21.7877C73.2111 21.9768 73.3862 22.1354 73.4574 22.3287C73.6525 22.856 73.5143 23.3231 73.0425 23.7297C72.2667 24.3967 71.4956 24.3235 70.7299 23.5101C70.6962 23.4758 70.6999 23.4226 70.7384 23.3911C70.7408 23.3894 70.7429 23.3876 70.7452 23.386L70.812 23.3414ZM54.5708 22.9367C53.267 22.4384 51.921 22.0235 50.5928 21.5294C49.9407 21.2875 49.2888 21.3016 48.8941 21.9076C48.3864 22.6865 48.8808 23.3271 49.7035 23.6077C51.2749 24.1405 52.8664 24.6943 54.4778 25.269C54.5708 25.303 54.5967 25.278 54.5554 25.1939C54.205 24.4984 54.2309 23.7982 54.6331 23.0932C54.6743 23.02 54.6539 22.9679 54.5708 22.9367ZM73.7809 20.6022C73.8021 20.5678 73.8498 20.5561 73.8882 20.5761C73.8954 20.5797 73.9019 20.5845 73.9073 20.59C74.6658 21.3857 75.394 21.387 76.0915 20.594C76.5861 20.0307 76.1494 19.4166 75.737 18.9448C75.5418 18.7212 75.2336 18.7639 74.974 18.8411C74.1018 19.1014 73.5919 19.6369 73.4441 20.4476C73.3951 20.712 73.3886 21.0698 73.6325 21.261C74.7234 22.1164 75.7414 22.9773 76.6859 23.8437C77.0718 24.1975 76.9788 24.4922 77.6838 24.4984C79.7304 24.5126 80.5244 22.3998 79.052 21.1451C78.1518 20.3792 77.3194 19.6871 76.5551 19.0689C76.456 18.9902 76.3385 18.9361 76.2026 18.9062C76.0282 18.8669 75.9992 18.9103 76.1161 19.0364C76.6971 19.6708 76.7169 20.4273 76.0496 20.9844C75.3031 21.6095 74.5425 21.5525 73.7677 20.8136C73.7254 20.7723 73.7176 20.7105 73.7479 20.6611L73.7809 20.6022ZM63.6936 17.68C62.4518 18.69 61.1827 19.7013 59.8861 20.7141C59.365 21.1207 58.7488 21.8447 58.7086 22.5035C58.7042 22.5848 58.7294 22.6567 58.7843 22.7191C59.0693 23.0404 59.2468 23.3989 59.3163 23.7947C59.3295 23.8679 59.3762 23.9114 59.4559 23.9249C61.1013 24.196 61.9003 25.063 61.853 26.5259C61.8503 26.6031 61.8915 26.6437 61.9773 26.6479C62.854 26.6803 63.446 27.0911 63.7535 27.8801C63.7832 27.956 63.8407 27.9825 63.9265 27.9594C64.3465 27.8483 64.7426 27.8788 65.1152 28.0509C65.1847 28.0835 65.2423 28.07 65.2879 28.0103C65.841 27.2958 66.6029 26.9447 67.5743 26.9569C67.6646 26.9582 67.6962 26.9197 67.6697 26.841C67.3046 25.751 67.5692 24.8461 68.4636 24.1262C68.5729 24.0381 68.5559 24.009 68.4125 24.0389C67.6291 24.1988 66.8958 24.0206 66.2126 23.504C64.3989 22.1334 63.933 19.801 63.8646 17.7471C63.8632 17.6955 63.8165 17.6545 63.7603 17.6556C63.7355 17.6561 63.712 17.6648 63.6936 17.68ZM72.9009 21.013C72.6812 18.7679 75.4022 17.3668 77.2669 18.955C77.8878 19.4851 78.4771 19.9914 79.0343 20.4741C79.1095 20.5391 79.1783 20.5337 79.2407 20.4577C80.6405 18.7605 80.8939 16.9262 80.0012 14.9552C79.9702 14.8871 79.9185 14.8384 79.8459 14.8087C79.6153 14.7109 79.3313 14.715 79.0854 14.646C77.5227 14.2068 76.4805 13.2664 75.9587 11.8256C75.9281 11.7419 75.8524 11.6788 75.7591 11.6588C73.1853 11.1016 70.9775 11.6691 69.1352 13.3607C69.0838 13.4082 69.075 13.4616 69.1087 13.5213C70.5916 16.1421 71.0238 18.9042 70.406 21.8081C70.3869 21.9002 70.4111 21.9118 70.4792 21.8426C71.1178 21.2 71.8941 20.9499 72.8075 21.0923C72.8756 21.1032 72.9066 21.0767 72.9009 21.013ZM68.0866 22.6926C68.0389 22.7223 67.9742 22.7109 67.9418 22.6673C67.9364 22.6601 67.9323 22.6521 67.9292 22.6439C67.3325 21.021 67.887 19.4512 70.029 19.4857C70.0756 19.4869 70.1141 19.4541 70.1155 19.4126V19.4105C70.109 16.4578 69.0954 13.192 66.2681 11.6669C64.2147 10.5565 61.899 10.3092 59.3207 10.9245C58.7396 11.0628 58.1235 11.2228 57.4713 11.4045C56.691 11.6229 55.803 11.6647 54.8082 11.5307C54.7312 11.5198 54.6706 11.5435 54.6263 11.6016L48.5415 19.5468C48.4795 19.6281 48.4891 19.7013 48.5704 19.7664C48.8778 20.0145 49.1876 20.2842 49.4994 20.5757C49.9031 20.9539 50.5417 20.9865 51.0717 21.1695C52.3165 21.6006 53.5981 22.0514 54.9168 22.5218C54.9863 22.5462 55.0513 22.5374 55.112 22.4954C56.0728 21.8066 57.0574 21.7057 58.0656 22.1924C58.1194 22.2193 58.1872 22.2002 58.2168 22.1498C58.2202 22.144 58.2233 22.1378 58.2253 22.1314C58.4294 21.5159 58.7522 21.0278 59.1943 20.6672C60.5959 19.5217 62.0608 18.3348 63.5894 17.1066C63.7763 16.9562 64.0607 16.9736 64.2246 17.145C64.2876 17.211 64.3261 17.2937 64.3346 17.3811C64.3983 18.0359 64.4667 18.6547 64.5406 19.2377C64.7337 20.7587 65.5696 22.8512 67.215 23.4695C69.497 24.3275 70.109 21.1329 70.1243 19.8416C70.126 19.7711 70.0876 19.7345 70.0092 19.7318C68.0045 19.681 67.6717 21.1491 68.1686 22.5909C68.1775 22.6181 68.1693 22.6398 68.1441 22.656L68.0866 22.6926ZM68.5876 9.26315C66.5719 9.53988 64.5406 9.75321 62.5274 9.96685C62.134 10.0087 62.1347 10.0468 62.5294 10.0805C64.7579 10.272 66.716 10.951 68.2218 12.5127C68.2766 12.5683 68.3444 12.5995 68.4258 12.6064C68.8352 12.6361 69.1894 12.5574 69.4881 12.3706C69.8856 12.1223 70.3144 11.8771 70.7742 11.6344C71.0668 11.4798 71.1066 11.2012 71.0913 10.9185C71.0157 9.53988 69.9537 9.07419 68.5876 9.26315ZM55.1627 9.99839C55.1951 9.95592 55.1838 9.89782 55.1375 9.86815L52.2278 7.99974C52.1816 7.97007 52.1179 7.98007 52.0857 8.02255L43.8895 18.7567C43.8571 18.799 43.8685 18.8574 43.9146 18.887L46.8246 20.7556C46.8706 20.7852 46.9343 20.7749 46.9665 20.7326L55.1627 9.99839ZM84.383 10.6156C84.383 8.57039 82.5751 6.9125 80.3449 6.9125C78.1147 6.9125 76.3068 8.57039 76.3068 10.6156C76.3068 12.6608 78.1147 14.3187 80.3449 14.3187C82.5751 14.3187 84.383 12.6608 84.383 10.6156ZM85.5914 3.99652C85.5788 3.94123 85.5962 3.88376 85.638 3.84191L88.0862 1.45034C88.1203 1.41661 88.1179 1.36382 88.0811 1.33259C88.0709 1.32416 88.059 1.31791 88.0461 1.31416C88.0031 1.30323 87.9595 1.29917 87.9153 1.30198C87.7841 1.31104 87.6629 1.36351 87.576 1.44847L83.0655 5.84274C82.9978 5.90927 82.9157 5.95456 82.8196 5.97892C82.7382 6.00079 82.682 5.99329 82.651 5.95675C82.5564 5.84681 82.5608 5.74061 82.6643 5.63754L86.8863 1.52374C87.0461 1.36757 87.0093 1.29261 86.7756 1.29792L86.4384 1.30604C86.2048 1.31135 86.0113 1.39537 85.8574 1.5581L81.3115 6.38777C81.2362 6.46773 81.2546 6.51927 81.367 6.54238C83.4913 6.99996 84.7709 8.55946 84.9129 10.5038C84.9187 10.5959 84.964 10.6162 85.0481 10.5647L93.9979 5.07814C94.0919 5.02098 94.1485 4.92478 94.1488 4.82202V1.53186C94.1488 1.39755 94.0763 1.3304 93.9315 1.3304L88.9643 1.32853C88.8805 1.32853 88.8005 1.36007 88.7426 1.41598L85.9616 4.11021C85.9303 4.1405 85.8887 4.1608 85.8441 4.16736C85.7051 4.18485 85.621 4.12801 85.5914 3.99652ZM25.8899 10.2536C25.8899 10.2942 25.9113 10.332 25.9475 10.3551L41.725 20.4882C41.7862 20.5276 41.8705 20.514 41.9134 20.4578L53.4023 5.42171C53.4451 5.36581 53.4304 5.28835 53.3691 5.24899L47.2953 1.34071C47.2725 1.32603 47.2455 1.31822 47.2177 1.31822L25.9808 1.32228C25.9061 1.32228 25.8454 1.37788 25.8454 1.44628L25.8899 10.2536ZM71.1866 30.174C71.2422 31.3412 70.406 32.364 69.1577 32.6019C67.5787 32.9049 66.6608 31.9065 65.6585 30.9894C65.5934 30.9304 65.4923 30.9219 65.4166 30.9691C64.9289 31.2728 64.3908 31.3418 63.8022 31.1765C63.7167 31.1521 63.6418 31.1683 63.5785 31.2253C63.0492 31.6916 62.4106 31.7953 61.6626 31.5364C59.6194 30.826 57.5993 30.1225 55.6021 29.4256C55.0241 29.2237 54.644 28.8495 54.4621 28.3031C54.4328 28.2124 54.3691 28.1512 54.2714 28.1201C53.3647 27.8273 52.4554 27.6321 52.2004 26.6315C52.1808 26.5547 52.1227 26.4901 52.043 26.4567C50.85 25.9524 49.6258 25.8446 49.7412 24.3275C49.7516 24.2029 49.6917 24.1228 49.5616 24.0877C47.9894 23.6605 47.5592 21.8142 49.1003 21.0618C49.1846 21.0197 49.192 20.9689 49.1225 20.9093L48.2444 20.1466C48.1779 20.0884 48.118 20.0945 48.0648 20.1649L47.1312 21.4034C47.0766 21.4753 47.01 21.4861 46.9317 21.436L43.5921 19.2784C43.5489 19.2512 43.4906 19.2602 43.4612 19.2987L42.0465 21.1674C42.0069 21.2202 41.9281 21.2333 41.8707 21.1969L41.8692 21.196L25.5527 10.7112C25.418 10.6246 25.3384 10.4831 25.3399 10.3329L25.3577 1.32634C25.3577 1.0771 25.5791 0.875013 25.8521 0.875013L47.1666 0.844404C47.3802 0.843155 47.5893 0.902811 47.7655 1.01525L54.1317 5.11281C54.2053 5.15966 54.224 5.25149 54.1736 5.3177L54.1719 5.32021L52.533 7.4391C52.4961 7.48689 52.5084 7.55279 52.5602 7.58652L52.5618 7.58746L55.9059 9.73916C55.9577 9.77102 55.9709 9.8363 55.9352 9.88471L55.1232 10.9429C55.0551 11.031 55.0803 11.0791 55.1985 11.0872C56.0973 11.1525 56.9539 11.0582 57.7686 10.8045C58.7073 10.5119 59.6477 10.2923 60.5891 10.1458C60.6691 10.1336 60.7413 10.1046 60.8064 10.0584C61.2396 9.74915 61.6773 9.56893 62.1194 9.5174C64.1595 9.27627 66.1734 9.03952 68.1618 8.80776C68.9047 8.72031 69.703 8.58194 70.3995 8.95425C71.3321 9.4543 71.7285 10.1986 71.5879 11.1868C71.5746 11.2765 71.6144 11.3071 71.7078 11.2784C72.9938 10.8826 74.3082 10.8405 75.6505 11.1525C75.7302 11.1712 75.7687 11.1428 75.7656 11.0669C75.7022 8.84087 76.7857 7.3504 79.0166 6.59517C79.352 6.48272 79.817 6.43056 80.4113 6.43868C80.5073 6.43993 80.5867 6.40808 80.6487 6.34311L85.6847 0.999014C85.7886 0.887821 85.9402 0.8241 86.0992 0.8241L94.1376 0.836283C94.4237 0.837532 94.6553 1.05055 94.6566 1.31416L94.6655 4.8239C94.6669 5.09314 94.5211 5.34519 94.2772 5.49511L84.995 11.1809C84.93 11.2203 84.8877 11.2743 84.8686 11.3436C84.3067 13.4082 82.8918 14.5632 80.6242 14.8087C80.54 14.8168 80.5142 14.8568 80.5465 14.9286C81.4617 17.0109 81.1521 18.9733 79.6174 20.8157C79.57 20.8713 79.5724 20.9262 79.6242 20.9804C80.3513 21.7301 80.5438 22.5367 80.2008 23.4003C79.7543 24.5214 78.8228 25.0468 77.4066 24.9762C77.3344 24.9722 77.2986 25.0033 77.3003 25.0698C77.3521 26.5204 76.6126 27.407 75.0827 27.7297C75.0088 27.7446 74.972 27.7859 74.972 27.8536C74.9431 29.6372 73.1359 30.8572 71.3283 30.0886C71.2296 30.0465 71.1822 30.0751 71.1866 30.174Z" stroke="white" stroke-width="1288" mask="url(#path-13-inside-1_1434_79)"/>
</g>
<defs>
<filter id="filter0_d_1434_79" x="21.3398" y="0.824219" width="77.3242" height="39.833" filterUnits="userSpaceOnUse" color-interpolation-filters="sRGB">
<feFlood flood-opacity="0" result="BackgroundImageFix"/>
<feColorMatrix in="SourceAlpha" type="matrix" values="0 0 0 0 0 0 0 0 0 0 0 0 0 0 0 0 0 0 127 0" result="hardAlpha"/>
<feOffset dy="4"/>
<feGaussianBlur stdDeviation="2"/>
<feComposite in2="hardAlpha" operator="out"/>
<feColorMatrix type="matrix" values="0 0 0 0 0 0 0 0 0 0 0 0 0 0 0 0 0 0 0.25 0"/>
<feBlend mode="normal" in2="BackgroundImageFix" result="effect1_dropShadow_1434_79"/>
<feBlend mode="normal" in="SourceGraphic" in2="effect1_dropShadow_1434_79" result="shape"/>
</filter>
</defs>
</svg>
