<svg width="58" height="58" viewBox="0 0 58 58" fill="none" xmlns="http://www.w3.org/2000/svg">
<path fill-rule="evenodd" clip-rule="evenodd" d="M38.5 21.7497C38.5 24.3134 37.4991 26.7722 35.7175 28.585C33.9359 30.3979 31.5196 31.4163 29 31.4163C26.4804 31.4163 24.0641 30.3979 22.2825 28.585C20.5009 26.7722 19.5 24.3134 19.5 21.7497C19.5 19.1859 20.5009 16.7272 22.2825 14.9143C24.0641 13.1015 26.4804 12.083 29 12.083C31.5196 12.083 33.9359 13.1015 35.7175 14.9143C37.4991 16.7272 38.5 19.1859 38.5 21.7497ZM33.75 21.7497C33.75 23.0316 33.2496 24.2609 32.3588 25.1674C31.468 26.0738 30.2598 26.583 29 26.583C27.7402 26.583 26.532 26.0738 25.6412 25.1674C24.7504 24.2609 24.25 23.0316 24.25 21.7497C24.25 20.4678 24.7504 19.2384 25.6412 18.332C26.532 17.4256 27.7402 16.9163 29 16.9163C30.2598 16.9163 31.468 17.4256 32.3588 18.332C33.2496 19.2384 33.75 20.4678 33.75 21.7497Z" fill="#C4C4C4"/>
<path fill-rule="evenodd" clip-rule="evenodd" d="M29 2.4165C14.5719 2.4165 2.875 14.3186 2.875 28.9998C2.875 43.6811 14.5719 55.5832 29 55.5832C43.4281 55.5832 55.125 43.6811 55.125 28.9998C55.125 14.3186 43.4281 2.4165 29 2.4165ZM7.625 28.9998C7.625 34.0507 9.31838 38.7003 12.1565 42.393C14.1497 39.7296 16.721 37.5711 19.6697 36.0863C22.6183 34.6014 25.8644 33.8303 29.1544 33.8332C32.4018 33.83 35.6071 34.5812 38.526 36.0294C41.4449 37.4776 44.0004 39.5847 45.9979 42.19C48.0557 39.4437 49.4412 36.2383 50.0399 32.8389C50.6385 29.4396 50.433 25.944 49.4404 22.6416C48.4478 19.3391 46.6967 16.3245 44.3318 13.8474C41.9669 11.3703 39.0564 9.50183 35.8409 8.39657C32.6255 7.2913 29.1976 6.98104 25.8409 7.49144C22.4842 8.00184 19.2953 9.31824 16.5378 11.3317C13.7804 13.3452 11.5338 15.9979 9.98392 19.0702C8.43404 22.1426 7.62543 25.5463 7.625 28.9998ZM29 50.7498C24.0931 50.7573 19.3344 49.0397 15.529 45.8875C17.0607 43.6563 19.0994 41.8346 21.4717 40.5773C23.844 39.3201 26.4796 38.6646 29.1544 38.6665C31.7958 38.6644 34.3995 39.3035 36.7495 40.5308C39.0994 41.7581 41.1276 43.5382 42.6658 45.7232C38.8308 48.9777 33.9936 50.757 29 50.7498Z" fill="#C4C4C4"/>
</svg>
