<svg width="108" height="37" viewBox="0 0 108 37" fill="none" xmlns="http://www.w3.org/2000/svg">
<rect x="0.5" y="0.5" width="107" height="36" rx="18" stroke="#C4C4C4"/>
<path d="M20.25 7.25V4.75H27.75V7.25H20.25ZM22.75 21H25.25V13.5H22.75V21ZM24 31C22.4583 31 21.005 30.7033 19.64 30.11C18.275 29.5167 17.0825 28.7092 16.0625 27.6875C15.0417 26.6667 14.2346 25.4737 13.6413 24.1087C13.0479 22.7437 12.7508 21.2908 12.75 19.75C12.75 18.2083 13.0471 16.755 13.6413 15.39C14.2354 14.025 15.0425 12.8325 16.0625 11.8125C17.0833 10.7917 18.2762 9.98458 19.6412 9.39125C21.0062 8.79792 22.4592 8.50083 24 8.5C25.2917 8.5 26.5313 8.70833 27.7188 9.125C28.9062 9.54167 30.0208 10.1458 31.0625 10.9375L32.8125 9.1875L34.5625 10.9375L32.8125 12.6875C33.6042 13.7292 34.2083 14.8438 34.625 16.0312C35.0417 17.2187 35.25 18.4583 35.25 19.75C35.25 21.2917 34.9529 22.745 34.3588 24.11C33.7646 25.475 32.9575 26.6675 31.9375 27.6875C30.9167 28.7083 29.7238 29.5158 28.3588 30.11C26.9938 30.7042 25.5408 31.0008 24 31ZM24 28.5C26.4167 28.5 28.4792 27.6458 30.1875 25.9375C31.8958 24.2292 32.75 22.1667 32.75 19.75C32.75 17.3333 31.8958 15.2708 30.1875 13.5625C28.4792 11.8542 26.4167 11 24 11C21.5833 11 19.5208 11.8542 17.8125 13.5625C16.1042 15.2708 15.25 17.3333 15.25 19.75C15.25 22.1667 16.1042 24.2292 17.8125 25.9375C19.5208 27.6458 21.5833 28.5 24 28.5Z" fill="white"/>
<path d="M53.2786 13.9624V12.2984H56.6066V23.9624H54.7666V13.9624H53.2786ZM59.1123 17.9784C59.1123 16.1331 59.4217 14.6931 60.0403 13.6584C60.6697 12.6131 61.747 12.0904 63.2723 12.0904C64.7977 12.0904 65.8697 12.6131 66.4883 13.6584C67.1177 14.6931 67.4323 16.1331 67.4323 17.9784C67.4323 19.8451 67.1177 21.3064 66.4883 22.3624C65.8697 23.4077 64.7977 23.9304 63.2723 23.9304C61.747 23.9304 60.6697 23.4077 60.0403 22.3624C59.4217 21.3064 59.1123 19.8451 59.1123 17.9784ZM65.6403 17.9784C65.6403 17.1144 65.5817 16.3837 65.4643 15.7864C65.3577 15.1891 65.1337 14.7037 64.7923 14.3304C64.451 13.9464 63.9443 13.7544 63.2723 13.7544C62.6003 13.7544 62.0937 13.9464 61.7523 14.3304C61.411 14.7037 61.1817 15.1891 61.0643 15.7864C60.9577 16.3837 60.9043 17.1144 60.9043 17.9784C60.9043 18.8744 60.9577 19.6264 61.0643 20.2344C61.171 20.8424 61.395 21.3331 61.7363 21.7064C62.0883 22.0797 62.6003 22.2664 63.2723 22.2664C63.9443 22.2664 64.451 22.0797 64.7923 21.7064C65.1443 21.3331 65.3737 20.8424 65.4803 20.2344C65.587 19.6264 65.6403 18.8744 65.6403 17.9784ZM70.3383 24.0744C70.0077 24.0744 69.7303 23.9624 69.5063 23.7384C69.2823 23.5144 69.1703 23.2371 69.1703 22.9064C69.1703 22.5757 69.2823 22.2984 69.5063 22.0744C69.7303 21.8504 70.0077 21.7384 70.3383 21.7384C70.6583 21.7384 70.9303 21.8504 71.1543 22.0744C71.3783 22.2984 71.4903 22.5757 71.4903 22.9064C71.4903 23.2371 71.3783 23.5144 71.1543 23.7384C70.9303 23.9624 70.6583 24.0744 70.3383 24.0744ZM70.3383 17.3544C70.0077 17.3544 69.7303 17.2424 69.5063 17.0184C69.2823 16.7944 69.1703 16.5171 69.1703 16.1864C69.1703 15.8557 69.2823 15.5784 69.5063 15.3544C69.7303 15.1304 70.0077 15.0184 70.3383 15.0184C70.6583 15.0184 70.9303 15.1304 71.1543 15.3544C71.3783 15.5784 71.4903 15.8557 71.4903 16.1864C71.4903 16.5171 71.3783 16.7944 71.1543 17.0184C70.9303 17.2424 70.6583 17.3544 70.3383 17.3544ZM73.2842 17.9784C73.2842 16.1331 73.5936 14.6931 74.2122 13.6584C74.8416 12.6131 75.9189 12.0904 77.4442 12.0904C78.9696 12.0904 80.0416 12.6131 80.6602 13.6584C81.2896 14.6931 81.6042 16.1331 81.6042 17.9784C81.6042 19.8451 81.2896 21.3064 80.6602 22.3624C80.0416 23.4077 78.9696 23.9304 77.4442 23.9304C75.9189 23.9304 74.8416 23.4077 74.2122 22.3624C73.5936 21.3064 73.2842 19.8451 73.2842 17.9784ZM79.8122 17.9784C79.8122 17.1144 79.7536 16.3837 79.6362 15.7864C79.5296 15.1891 79.3056 14.7037 78.9642 14.3304C78.6229 13.9464 78.1162 13.7544 77.4442 13.7544C76.7722 13.7544 76.2656 13.9464 75.9242 14.3304C75.5829 14.7037 75.3536 15.1891 75.2362 15.7864C75.1296 16.3837 75.0762 17.1144 75.0762 17.9784C75.0762 18.8744 75.1296 19.6264 75.2362 20.2344C75.3429 20.8424 75.5669 21.3331 75.9082 21.7064C76.2602 22.0797 76.7722 22.2664 77.4442 22.2664C78.1162 22.2664 78.6229 22.0797 78.9642 21.7064C79.3162 21.3331 79.5456 20.8424 79.6522 20.2344C79.7589 19.6264 79.8122 18.8744 79.8122 17.9784ZM83.5342 17.9784C83.5342 16.1331 83.8436 14.6931 84.4622 13.6584C85.0916 12.6131 86.1689 12.0904 87.6942 12.0904C89.2196 12.0904 90.2916 12.6131 90.9102 13.6584C91.5396 14.6931 91.8542 16.1331 91.8542 17.9784C91.8542 19.8451 91.5396 21.3064 90.9102 22.3624C90.2916 23.4077 89.2196 23.9304 87.6942 23.9304C86.1689 23.9304 85.0916 23.4077 84.4622 22.3624C83.8436 21.3064 83.5342 19.8451 83.5342 17.9784ZM90.0622 17.9784C90.0622 17.1144 90.0036 16.3837 89.8862 15.7864C89.7796 15.1891 89.5556 14.7037 89.2142 14.3304C88.8729 13.9464 88.3662 13.7544 87.6942 13.7544C87.0222 13.7544 86.5156 13.9464 86.1742 14.3304C85.8329 14.7037 85.6036 15.1891 85.4862 15.7864C85.3796 16.3837 85.3262 17.1144 85.3262 17.9784C85.3262 18.8744 85.3796 19.6264 85.4862 20.2344C85.5929 20.8424 85.8169 21.3331 86.1582 21.7064C86.5102 22.0797 87.0222 22.2664 87.6942 22.2664C88.3662 22.2664 88.8729 22.0797 89.2142 21.7064C89.5662 21.3331 89.7956 20.8424 89.9022 20.2344C90.0089 19.6264 90.0622 18.8744 90.0622 17.9784Z" fill="white"/>
</svg>
